<?xml version="1.0" encoding="UTF-8" standalone="no"?>
<!-- Created with Inkscape (http://www.inkscape.org/) -->

<svg
   version="1.1"
   id="svg9067"
   width="823.86438"
   height="816.27124"
   viewBox="0 0 823.86436 816.27124"
   sodipodi:docname="makerspace_logo.svg"
   inkscape:version="1.2.2 (b0a8486, 2022-12-01)"
   xmlns:inkscape="http://www.inkscape.org/namespaces/inkscape"
   xmlns:sodipodi="http://sodipodi.sourceforge.net/DTD/sodipodi-0.dtd"
   xmlns="http://www.w3.org/2000/svg"
   xmlns:svg="http://www.w3.org/2000/svg">
  <defs
     id="defs9071" />
  <sodipodi:namedview
     id="namedview9069"
     pagecolor="#ffffff"
     bordercolor="#000000"
     borderopacity="0.25"
     inkscape:showpageshadow="2"
     inkscape:pageopacity="0.0"
     inkscape:pagecheckerboard="0"
     inkscape:deskcolor="#d1d1d1"
     showgrid="false"
     inkscape:zoom="0.26339286"
     inkscape:cx="-516.33898"
     inkscape:cy="345.49153"
     inkscape:window-width="1419"
     inkscape:window-height="456"
     inkscape:window-x="0"
     inkscape:window-y="25"
     inkscape:window-maximized="0"
     inkscape:current-layer="g9075">
    <inkscape:page
       x="0"
       y="0"
       id="page9073"
       width="823.86438"
       height="816.27124" />
  </sodipodi:namedview>
  <g
     id="g9075"
     inkscape:groupmode="layer"
     inkscape:label="Page 1"
     transform="matrix(1.3333333,0,0,-1.3333333,-163.25424,850.44065)">
    <g
       id="g9077"
       transform="scale(0.1)">
      <path
         d="m 6204.6,1188.62 -0.36,8.62 -27.55,2.9 -161.72,98.17 -173.34,80.01 -66.6,-93.33 14.74,-50.58 -77.83,5.08 -20.79,90.05 152.46,127.44 163.8,-65.34 189.18,-101.97 160.38,151.38 -101.16,173.88 -75.24,160.74 112.23,135.45 174.51,-9.45 202.59,-38.34 112.32,183.24 -170.64,158.4 -94.14,112.41 80.28,199.17 191.79,31.77 209.25,-7.83 32.13,207.09 -177.66,107.37 -119.16,99.81 16.02,215.1 173.7,55.08 171.27,40.5 v 238.95 l -201.51,40.59 -151.47,47.07 -32.13,223.11 166.86,119.79 154.08,87.3 -56.16,207.09 -222.12,15.66 -154.89,0.27 -64.17,215.1 101.52,104.58 131.04,158.4 -104.22,191.16 -241.65,-46.17 -127.44,-33.48 -120.33,159.3 100.08,180.81 60.39,137.88 -144.36,175.23 -201.33,-89.82 -143.64,-77.49 -168.48,119.52 30.15,154.71 50.04,187.83 -184.5,127.53 -130.68,-135.36 -134.01,-103.68 -240.66,71.73 12.87,191.88 11.16,166.59 -216.63,71.73 -110.43,-158.49 -106.11,-152.28 -232.65,31.95 -34.2,180.54 -46.08,153.99 -240.66,15.93 -55.62,-189.9 -40.59,-152.64 -208.62,-55.8 -106.56,151.74 -93.96,166.95 -232.65,-39.78 -15.84,-167.13 15.84,-215.28 -192.6,-71.73 -115.2,123.66 -157.5,139.23 -208.62,-135.45 37.17,-173.79 43.02,-176.67 -136.35,-103.59 -148.41,53.55 -188.55,97.83 -184.5,-175.32 84.42,-129.15 92.07,-197.46 -120.33,-151.38 -189.9,15.48 -171.09,40.32 -120.33,-183.24 130.23,-130.41 126.45,-156.42 -64.17,-183.24 -230.04,-13.68 -179.1,-2.25 -56.16,-223.02 198.27,-94.68 130.68,-96.48 -24.03,-199.17 -113.31,-51.03 -263.79,-84.42 -8.01,-207.18 261.72,-68.4 123.39,-51.03 16.02,-191.25 -122.67,-101.07 -198.27,-137.88 56.16,-191.25 192.51,12.51 192.6,-28.44 88.2,-191.16 -89.46,-113.76 -159.21,-165.06 104.31,-207.18 189.09,38.88 163.89,40.77 120.33,-159.3 -59.31,-144.81 -93.15,-165.87 152.46,-159.39 184.59,98.1 160.38,85.14 152.37,-143.37 -19.5,-99 h -56.91 l -23.39,-1.63 17.09,62.74 -86.67,80.01 -139.95,-66.69 -145.39,-85.22 -41.27,4.13 -8.96,-30.02 -151.06,144.41 -93.33,93.42 66.69,153.27 99.99,180 -66.69,60.03 -166.68,-53.37 -193.32,-13.32 -93.33,160.02 -73.35,126.63 113.31,153.36 153.36,133.38 -66.69,113.31 h -199.98 -173.34 l -59.94,146.61 -53.37,126.72 73.35,66.69 153.36,99.99 126.63,106.65 -13.32,99.99 -140.04,33.3 -239.94,66.69 -6.75,133.38 13.41,186.66 199.98,73.26 180,80.01 v 120.06 l -146.7,93.33 -153.27,80.01 33.3,173.34 46.62,173.25 166.68,13.41 213.39,-20.07 39.96,133.38 -113.31,113.31 -146.7,133.38 80.01,166.59 99.99,133.38 166.68,-39.96 180,-33.39 73.35,113.31 -86.67,140.04 -86.67,160.02 146.7,160.02 133.29,119.97 186.66,-93.33 146.7,-86.67 46.62,66.69 -39.96,139.95 -26.64,186.66 159.93,126.72 133.38,73.26 146.61,-93.33 126.72,-166.59 106.65,33.3 -13.32,133.29 6.66,240.03 160.02,60.03 159.93,46.62 126.72,-166.68 113.31,-166.59 113.31,46.62 46.71,186.66 60.03,140.04 333.27,6.66 20.07,-93.33 73.26,-266.67 h 133.38 l 60.03,86.67 146.61,226.62 166.68,-33.3 153.36,-53.37 -6.66,-166.68 v -219.96 l 146.61,-19.98 99.99,73.35 160.02,146.61 153.36,-80.01 133.29,-59.94 -33.3,-186.66 -46.71,-186.66 113.4,-66.69 146.61,86.67 200.07,93.33 113.31,-140.04 99.99,-113.31 -73.35,-153.36 -86.67,-186.66 80.01,-80.01 126.63,26.73 220.05,33.3 86.67,-126.63 73.35,-146.7 -120.06,-140.04 -119.97,-146.61 53.37,-113.4 h 146.61 l 193.32,13.41 c 0,0 41.93,-161.58 52,-161.57 0.56,0 1.02,0.5 1.37,1.55 0.34,1.02 0.78,1.5 1.31,1.5 9.98,0 52.06,-168.18 52.06,-168.18 l -193.41,-113.31 -139.95,-106.65 6.66,-126.72 133.29,-39.96 213.39,-20.07 33.3,-206.64 -6.66,-186.66 -180,-33.3 -173.34,-46.71 -6.66,-126.63 99.99,-66.69 206.64,-106.65 -19.98,-166.68 -39.96,-166.68 -193.32,-6.66 -213.39,-26.64 -39.96,-126.72 80.01,-86.67 193.32,-166.59 -80.01,-140.04 -93.33,-153.36 -173.34,40.05 -199.98,19.98 -60.03,-73.35 40.05,-86.67 c 0,0 126.63,-213.3 106.65,-226.62 L 6204.6,1188.62"
         style="fill:#ffffff;fill-opacity:1;fill-rule:nonzero;stroke:none"
         id="path9079" />
      <path
         d="m 3900.06,384.809 -426.24,19.98 -406.26,6.66 -466.2,13.321 -306.36,-26.641 -59.94,19.98 13.41,193.141 6.66,186.391 v 213.119 146.52 l 10.93,36.58 8.96,30.02 41.27,-4.13 91.93,-9.19 262.99,18.35 23.39,1.63 h 56.91 l -12.63,-64.13 -213.84,-6.43 h -199.98 l 9.9,-195.031 -9.9,-159.929 -10.08,-150.028 10.08,-185.043 69.93,5.043 215.01,-5.043 205.02,9.992 434.97,-9.992 639.99,-9.988 260.01,9.988 285.03,-9.988 559.98,9.988 205.02,9.992 610.02,-9.992 319.95,15.031 5.04,144.989 -9.99,164.972 9.99,170.008 -5.04,180.001 -180,15.03 -221.99,9.96 -16.06,69.55 77.83,-5.08 161.48,-10.53 225.44,-23.74 27.55,-2.9 0.36,-8.62 6.3,-151.22 -13.32,-206.459 v -173.16 -173.07 l -6.66,-93.242 -233.1,6.66 -332.91,19.98 -273.06,-6.66 -273.06,6.66 -253.08,-6.66 -432.9,-6.66 -492.75,-19.98"
         style="fill:#ffffff;fill-opacity:1;fill-rule:nonzero;stroke:none"
         id="path9081" />
      <path
         d="m 3360.6,1210.56 -366.3,19.98 h -242.79 l 19.5,99 -152.37,143.37 -160.38,-85.14 -184.59,-98.1 -152.46,159.39 93.15,165.87 59.31,144.81 -120.33,159.3 -163.89,-40.77 -189.09,-38.88 -104.31,207.18 159.21,165.06 89.46,113.76 -88.2,191.16 -192.6,28.44 -192.51,-12.51 -56.16,191.25 198.27,137.88 122.67,101.07 -16.02,191.25 -123.39,51.03 -261.72,68.4 8.01,207.18 263.79,84.42 113.31,51.03 24.03,199.17 -130.68,96.48 -198.27,94.68 56.16,223.02 179.1,2.25 230.04,13.68 64.17,183.24 -126.45,156.42 -130.23,130.41 120.33,183.24 171.09,-40.32 189.9,-15.48 120.33,151.38 -92.07,197.46 -84.42,129.15 184.5,175.32 188.55,-97.83 148.41,-53.55 136.35,103.59 -43.02,176.67 -37.17,173.79 208.62,135.45 157.5,-139.23 115.2,-123.66 192.6,71.73 -15.84,215.28 15.84,167.13 232.65,39.78 93.96,-166.95 106.56,-151.74 208.62,55.8 40.59,152.64 55.62,189.9 240.66,-15.93 46.08,-153.99 34.2,-180.54 232.65,-31.95 106.11,152.28 110.43,158.49 216.63,-71.73 -11.16,-166.59 -12.87,-191.88 240.66,-71.73 134.01,103.68 130.68,135.36 184.5,-127.53 -50.04,-187.83 -30.15,-154.71 168.48,-119.52 143.64,77.49 201.33,89.82 144.36,-175.23 -60.39,-137.88 -100.08,-180.81 120.33,-159.3 127.44,33.48 241.65,46.17 104.22,-191.16 -131.04,-158.4 -101.52,-104.58 64.17,-215.1 154.89,-0.27 222.12,-15.66 56.16,-207.09 -154.08,-87.3 -166.86,-119.79 32.13,-223.11 151.47,-47.07 201.51,-40.59 v -238.95 l -171.27,-40.5 -173.7,-55.08 -16.02,-215.1 119.16,-99.81 177.66,-107.37 -32.13,-207.09 -209.25,7.83 -191.79,-31.77 -80.28,-199.17 94.14,-112.41 170.64,-158.4 -112.32,-183.24 -202.59,38.34 -174.51,9.45 -112.23,-135.45 75.24,-160.74 101.16,-173.88 -160.38,-151.38 -189.18,101.97 -163.8,65.34 -152.46,-127.44 20.79,-90.05 -67.05,4.37 -319.68,-26.64 -299.7,6.66 -109.58,-0.5 81.23,51.62 227.61,109.98 243,135 196.56,119.97 150.03,70.02 98.28,70.02 20.61,350.01 10.35,250.02 15.57,225 10.35,194.94 10.26,165.06 5.22,64.98 -46.53,25.02 -77.58,19.98 -113.76,49.95 -85.91,45.65 38.75,59.38 69.93,74.97 65.07,70.02 99.99,80.01 139.95,80.01 30.06,-90 9.99,-80.01 -19.98,-109.98 29.97,-99.99 99.99,-80.01 140.04,-30.06 104.94,40.05 2.61,71.01 -102.6,103.95 64.98,54.99 140.04,-119.97 74.97,54.99 -35.01,234.99 -125.01,85.05 -90,59.94 -59.94,105.03 19.98,60.03 19.98,250.02 -45,64.98 v 80.01 l -54.99,74.97 -4.95,50.04 -20.07,69.93 -64.98,65.07 -4.95,90 -100.08,69.93 -103.77,1.62 -66.15,23.4 -55.08,95.04 -54.99,164.97 35.01,189.99 -55.44,85.05 -129.51,74.97 h -99.99 l -75.06,-29.97 15.03,-70.02 74.97,-99.99 -59.94,-50.04 -175.05,125.01 -54.99,-70.02 -15.03,-90 54.99,-174.96 105.03,-54.99 90,-54.99 56.52,-93.87 18.45,-56.16 25.02,-54.99 -160.02,-75.06 -69.93,-189.99 -25.02,-144.99 -84.69,-174.22 -46.62,102.58 -117.45,136.62 -114.12,130.05 -147.69,103.32 -99.6,40.48 45.24,36.2 25.02,64.98 49.95,90 29.97,64.98 30.06,70.02 -19.98,85.05 -10.08,79.92 -9.99,50.04 45,60.03 15.03,64.98 25.02,84.96 -15.03,105.03 -29.97,80.01 -35.01,54.99 -70.02,70.02 -94.95,39.96 h -120.06 l -80.01,-14.94 -80.01,-55.08 -69.93,-59.94 -75.06,19.98 -109.98,-35.01 -54.99,35.01 -170.01,-9.99 -105.03,-54.99 -34.92,45 -85.05,29.97 -94.95,-49.95 -80.01,-100.08 -35.01,-84.96 74.97,-164.97 130.05,-265.05 29.97,-25.02 v -64.98 l 74.97,-119.97 13.67,-25.82 -46.52,-4.24 -281.97,-139.95 -201.42,-180 -191.25,-270 -45.13,-106.76 -62.33,46.73 9.99,165.06 -25.02,99.99 -15.03,99.99 -90,164.97 30.06,54.99 -35.01,75.06 9.99,49.95 19.98,54.99 -54.99,60.03 254.97,510.03 9.99,64.98 -9.99,35.01 65.07,154.98 -20.07,125.01 -99.99,-109.98 -70.02,-99.99 -64.98,-30.06 -84.96,-135 -125.01,-215.01 c 0,0 -38.52,-65.25 -45,-74.97 -7.29,-10.89 -60.03,-84.96 -60.03,-84.96 l -90,-5.04 -59.94,-74.97 -65.07,-50.04 15.03,-84.96 -45,-95.04 -60.03,-9.99 -80.01,-29.97 -79.92,-95.04 -15.03,-80.01 -109.98,-90 19.17,-114.57 -84.24,-65.43 v -99.99 l -54.99,-84.96 -19.98,-70.02 v -70.02 l 35.01,-70.02 54.99,-49.95 -45,-85.05 19.98,-64.98 -49.95,-164.97 9.99,-195.03 60.03,-144.99 99.99,-95.04 180,-24.93 249.93,114.93 v -264.96 l -19.98,-279.99 v -340.02 -129.96 l 260.01,-160.02 260.01,-180 469.98,-240.03 172.33,-97.36 -83.59,-0.38 -213.12,-6.66"
         style="fill:#e63b3d;fill-opacity:1;fill-rule:nonzero;stroke:none"
         id="path9083" />
      <path
         d="m 5345.01,1159.98 -469.98,15.03 h -35.21 l 76.11,48.37 109.58,0.5 299.7,-6.66 319.68,26.64 67.05,-4.37 16.06,-69.55 -112.99,5.07 -270,-15.03 m -1909.98,0 -410.04,15.03 -286.11,-8.6 12.63,64.13 h 242.79 l 366.3,-19.98 213.12,6.66 83.59,0.38 57.71,-32.6 20.48,-9.99 h -55.49 l -244.98,-15.03"
         style="fill:#e63b3d;fill-opacity:1;fill-rule:nonzero;stroke:none"
         id="path9085" />
      <path
         d="m 3492.18,3519.96 -60.27,13.88 -81.93,51.1 -109.98,100.08 -109.98,84.96 -37.66,28.24 45.13,106.76 191.25,270 201.42,180 281.97,139.95 46.52,4.24 76.33,-144.19 80.01,-119.97 9.99,-60.03 -29.97,-39.96 19.98,-55.08 -119.97,-189.99 -109.98,-170.01 27.89,-48.03 -25.77,-35.41 -72.59,-26.54 -222.39,-90 m 1509.01,0.59 -60.91,29.47 -103.41,34.92 -93.15,35.01 -67.23,45 -20.7,50.04 -36.18,35.01 -51.75,25.02 -93.06,29.97 -11.33,0.61 11.51,64.37 40.05,109.98 45,65.07 35.01,99.99 64.98,64.98 v 64.98 l 35.01,80.01 54.75,43.81 99.6,-40.48 147.69,-103.32 114.12,-130.05 117.45,-136.62 46.62,-102.58 -0.36,-0.74 -64.98,-120.06 -84.96,-119.97 -85.05,-90 -38.72,-34.42"
         style="fill:#ffffff;fill-opacity:1;fill-rule:nonzero;stroke:none"
         id="path9087" />
      <path
         d="m 4435.02,459.961 -285.03,9.988 -260.01,-9.988 -639.99,9.988 -434.97,9.992 -205.02,-9.992 -215.01,5.043 -69.93,-5.043 -10.08,185.043 10.08,150.028 9.9,159.929 -9.9,195.031 h 199.98 l 213.84,6.43 286.11,8.6 410.04,-15.03 244.98,15.03 h 55.49 l 184.54,-90 184.95,-110.069 105.68,-52.82 -110.63,-290.98 79.92,3.687 35.01,104.043 150.03,7.469 54.99,-104.039 h 90 l -138.31,262.64 128.95,65.051 82.8,54.988 113.76,70.02 118.98,64.98 23.65,15.03 h 35.21 l 469.98,-15.03 270,15.03 112.99,-5.07 221.99,-9.96 180,-15.03 5.04,-180.001 -9.99,-170.008 9.99,-164.972 -5.04,-144.989 -319.95,-15.031 -610.02,9.992 -205.02,-9.992 -559.98,-9.988 m 839.97,434.969 9.99,-274.95 95.04,3.692 -35.01,378.988 -90,-11.16 -99.99,-167.129 -175.05,163.438 -80.01,-3.688 -19.98,-349.293 h 90 l 9.99,274.953 140.04,-156.062 h 60.03 l 94.95,141.211 m 452.16,126.72 -136.71,-23.939 -76.23,-93.512 2.25,-125.457 53.73,-111.512 89.73,-35.82 c 0,0 103.14,-3.961 112.14,-3.961 8.91,0 103.14,71.641 103.14,71.641 l 44.82,99.539 -2.25,119.519 -87.48,79.563 -103.14,23.939 m -987.12,-18.99 -110.07,-4.051 5.04,-367.468 h 99.99 l 5.04,371.519 M 3134.97,735.18 H 3285 l 64.98,-100.352 75.06,-3.687 -178.83,372.689 -76.23,-8.549 -149.94,-364.14 79.92,7.379 35.01,96.66 M 2565,980.43 l -54.99,-7.469 v -341.82 l 70.02,3.687 v 245.254 l 249.93,-241.562 75.06,-3.692 -19.98,367.832 c 0,0 -44.16,-16.351 -59.91,-16.351 -2.61,0 -4.44,0.453 -5.16,1.5 -0.08,0.121 -0.15,0.171 -0.23,0.171 -4.87,0 -9.76,-230.57 -9.76,-230.57 L 2565,980.43 M 3979.98,638.52 v 0 l -29.97,374.4 -85.05,-4.05 20.07,-249.569 -285.03,261.629 -64.98,4.05 14.94,-374.308 85.05,-4.051 -25.02,233.461 305.01,-237.512 64.98,-4.05"
         style="fill:#3a54ad;fill-opacity:1;fill-rule:nonzero;stroke:none"
         id="path9089" />
      <path
         d="m 2510.01,631.141 v 341.82 l 54.99,7.469 244.98,-223.02 c 0,0 4.89,230.57 9.76,230.57 0.08,0 0.15,-0.05 0.23,-0.171 0.72,-1.047 2.55,-1.5 5.16,-1.5 15.75,0 59.91,16.351 59.91,16.351 l 19.98,-367.832 -75.06,3.692 -249.93,241.562 V 634.828 l -70.02,-3.687"
         style="fill:#ffffff;fill-opacity:1;fill-rule:nonzero;stroke:none"
         id="path9091" />
      <path
         d="m 3425.04,631.141 -75.06,3.687 L 3285,735.18 h -150.03 l -35.01,-96.66 -79.92,-7.379 149.94,364.14 76.23,8.549 178.83,-372.689 m -206.82,268.468 -43.11,-81.269 69.21,-5.488 -26.1,86.757"
         style="fill:#ffffff;fill-opacity:1;fill-rule:nonzero;stroke:none"
         id="path9093" />
      <path
         d="m 3979.98,638.52 -64.98,4.05 -305.01,237.512 25.02,-233.461 -85.05,4.051 -14.94,374.308 64.98,-4.05 285.03,-261.629 -20.07,249.569 85.05,4.05 29.97,-374.4"
         style="fill:#ffffff;fill-opacity:1;fill-rule:nonzero;stroke:none"
         id="path9095" />
      <path
         d="m 4100.04,631.141 110.63,290.98 77.43,-38.691 -36.41,-61.129 80.01,-1.531 -25.62,53.671 8.88,-4.441 39.08,26.039 17.64,8.902 138.31,-262.64 h -90 L 4365,746.34 l -150.03,-7.469 -35.01,-104.043 -79.92,-3.687"
         style="fill:#ffffff;fill-opacity:1;fill-rule:nonzero;stroke:none"
         id="path9097" />
      <path
         d="M 4734.99,631.141 H 4635 l -5.04,367.468 110.07,4.051 -5.04,-371.519"
         style="fill:#ffffff;fill-opacity:1;fill-rule:nonzero;stroke:none"
         id="path9099" />
      <path
         d="m 5284.98,619.98 -9.99,274.95 -94.95,-141.211 h -60.03 l -140.04,156.062 -9.99,-274.953 h -90 l 19.98,349.293 80.01,3.688 175.05,-163.438 99.99,167.129 90,11.16 35.01,-378.988 -95.04,-3.692"
         style="fill:#ffffff;fill-opacity:1;fill-rule:nonzero;stroke:none"
         id="path9101" />
      <path
         d="m 5772.06,627.449 c -9,0 -112.14,3.961 -112.14,3.961 l -89.73,35.82 -53.73,111.512 -2.25,125.457 76.23,93.512 136.71,23.939 103.14,-23.939 87.48,-79.563 2.25,-119.519 -44.82,-99.539 c 0,0 -94.23,-71.641 -103.14,-71.641 m -43.65,308.34 -52.47,-18.269 -74.25,-30.508 26.19,-20.34 4.32,-56.973 24.12,-20.34 -2.25,-89.461 37.17,-18.269 39.33,-4.047 41.49,18.27 4.41,85.41 26.19,16.289 8.73,61.019 32.76,14.219 -115.74,63"
         style="fill:#ffffff;fill-opacity:1;fill-rule:nonzero;stroke:none"
         id="path9103" />
      <path
         d="m 5730.57,677.582 -39.33,4.047 -37.17,18.269 2.25,89.461 -24.12,20.34 -4.32,56.973 -26.19,20.34 74.25,30.508 52.47,18.269 115.74,-63 -32.76,-14.219 -8.73,-61.019 -26.19,-16.289 -4.41,-85.41 -41.49,-18.27"
         style="fill:#3a54ad;fill-opacity:1;fill-rule:nonzero;stroke:none"
         id="path9105" />
      <path
         d="m 3244.32,812.852 -69.21,5.488 43.11,81.269 26.1,-86.757"
         style="fill:#3a54ad;fill-opacity:1;fill-rule:nonzero;stroke:none"
         id="path9107" />
      <path
         d="m 4331.7,820.77 -80.01,1.531 36.41,61.129 17.98,-8.989 25.62,-53.671"
         style="fill:#3a54ad;fill-opacity:1;fill-rule:nonzero;stroke:none"
         id="path9109" />
      <path
         d="m 3657.31,1217.6 -172.33,97.36 -469.98,240.03 -260.01,180 -260.01,160.02 v 129.96 340.02 l 19.98,279.99 v 264.96 l -249.93,-114.93 -180,24.93 -99.99,95.04 -60.03,144.99 -9.99,195.03 49.95,164.97 -19.98,64.98 45,85.05 -54.99,49.95 -35.01,70.02 v 70.02 l 19.98,70.02 54.99,84.96 v 99.99 l 84.24,65.43 -19.17,114.57 109.98,90 15.03,80.01 79.92,95.04 80.01,29.97 60.03,9.99 45,95.04 -15.03,84.96 65.07,50.04 59.94,74.97 90,5.04 c 0,0 52.74,74.07 60.03,84.96 6.48,9.72 45,74.97 45,74.97 l 125.01,215.01 84.96,135 64.98,30.06 70.02,99.99 99.99,109.98 20.07,-125.01 -65.07,-154.98 9.99,-35.01 -9.99,-64.98 -254.97,-510.03 54.99,-60.03 -19.98,-54.99 -9.99,-49.95 35.01,-75.06 -30.06,-54.99 90,-164.97 15.03,-99.99 25.02,-99.99 -9.99,-165.06 62.33,-46.73 37.66,-28.24 109.98,-84.96 109.98,-100.08 81.93,-51.1 -48.36,11.14 -50.89,-10.26 -65.48,42.66 -151.02,141.21 -137.07,101.16 4.86,102.24 1.08,88.02 -23.4,74.97 -6.66,103.32 -71.64,125.01 -57.84,134.94 59.55,-3.27 -51.57,53.28 32.76,82.08 -12.33,25.56 -62.91,38.97 205.65,385.74 98.01,194.49 -22.5,30.78 63.99,129.87 22.23,49.23 -1.8,58.41 -38.79,-50.22 -41.67,-80.73 -37.53,-54.09 -25.65,-25.02 -27.9,7.92 -29.88,-51.66 -34.02,-64.62 -144.54,-273.51 -104.04,-189.09 -66.96,25.02 -30.42,2.97 -36.54,-70.65 -68.67,-4.77 31.14,-49.32 -108.16,-208.35 -0.47,0.18 -59.94,25.02 -46.26,-8.1 -53.55,-48.69 -37.8,-49.41 -3.06,-63 -37.08,-33.66 -61.02,-40.5 -2.97,-62.91 15.66,-83.52 -65.88,-59.94 -2.25,-47.25 5.22,-55.44 -37.08,-33.75 -39.33,-80.91 4.5,-71.19 99.09,-77.28 -56.61,-117.03 -1.62,-26.19 26.37,-24.93 -22.23,-49.23 -22.59,-74.61 -9.99,-87.39 2.16,-116.28 23.04,-130.32 16.02,-36.99 90.45,-72.27 96.12,-24.12 166.5,37.44 126.63,66.6 13.77,3.42 31.23,4.95 24.03,-9.99 -2.34,-211.68 -6.66,-286.65 -6.66,-266.67 -13.32,-253.35 213.3,-126.63 199.98,-126.72 300.06,-180 346.68,-166.59 187.48,-123.47 -135.21,-0.62 m 629.85,2.89 2.87,159.45 -5.04,280.08 9.99,259.92 v 200.07 l -209.97,108.27 -246.69,146.7 -253.35,126.63 -306.63,153.36 -286.65,146.7 -246.69,119.97 -162.54,89.55 -36.18,2.52 -31.32,-2.52 -39.96,-7.47 -118.53,-57.96 -120.96,-30.15 -80.01,-0.18 -83.25,36.63 -15.03,20.52 -18.9,75.69 -5.85,112.95 -1.17,99.81 26.19,71.46 14.76,51.12 19.44,31.5 36.9,3.33 37.35,41.4 31.24,57.25 127.7,-103.87 138.69,-69.66 80.55,-47.25 39.69,6.03 41.22,-45.36 71.82,-113.67 c 1.73,0.78 3.47,1.55 5.2,2.33 l -47.77,-25.64 -129.24,-64.98 1329.02,-627.76 185.95,-102.32 285.03,-149.94 20.42,10.98 -2.64,-501.9 c -2.39,-49.2 -4.28,-87.42 -4.28,-87.42 v -313.38 l -1.49,-62.56 -49.89,-0.23 M 2205,3419.97 l -60.03,-39.96 -45,-35.01 -4.95,-95.04 -9.99,-80.01 14.94,-109.98 25.02,-70.02 80.01,-24.93 115.02,29.97 104.94,49.95 85.05,40.05 H 2565 l 84.96,45 -74.97,125.01 h -64.98 l -80.01,54.99 -129.96,60.03 -95.04,49.95 m 3429.72,-110.89 -1.44,20.89 -56.88,64.98 -82.71,54.99 -129.33,35.01 -191.34,5.04 -31.6,-6.12 92.08,101.88 83.52,148.68 40.59,44.91 -9.63,-21.96 39.06,-30.15 c 0,0 39.78,-46.17 48.15,-53.73 8.46,-7.65 69.03,-42.03 69.03,-42.03 l 67.86,-71.55 57.42,-77.49 70.83,-23.13 63.27,19.17 -37.26,-58.05 -53.55,-53.55 -38.07,-57.79 m 33.93,194.05 -132.66,135.27 -59.4,63.9 -99.9,69.93 -2.43,48.06 28.08,81.72 42.93,103.95 36.81,119.61 49.23,138.96 42.84,53.01 83.34,47.07 73.44,30.42 59.94,32.49 47.25,18.45 56.7,-10.53 67.05,-55.53 16.83,-15.21 -53.1,-8.1 -22.59,-30.51 23.76,-47.07 49.41,-24.21 38.97,-30.15 -61.2,-5.76 -67.5,9.99 -52.2,26.82 -36.72,38.25 -10.26,45 -26.28,-62.91 33.66,-30.42 11.7,-20.79 -31.77,-6.93 -30.42,-33.66 -47.52,-13.14 -74.79,-3.78 87.39,-33.03 41.58,23.49 20.43,-33.75 -2.61,-53.73 11.61,-71.64 -28.53,-71.01 -47.7,-63.99 -102.33,-39.96 h 107.1 l 48.42,47.97 38.7,82.26 16.83,-15.21 -3.51,-37.71 23.58,-41.58 48.33,-2.97 39.87,4.68 20.16,-28.44 37.26,-48.96 36.9,12.6 10.55,6.28 23.38,-42.01 34.18,-78.83 -8.53,-5.59 -82.53,-63.09 -109.17,-64.35 -89.19,-36.63 -125.37,-9 m 580.77,321.03 -14.14,6.96 -19.57,41.75 44.06,13.39 -10.35,-62.1 m -217.71,18.45 -24.3,57.69 4.86,61.83 70.11,43.65 156.87,21.33 30.87,-27.9 -8.01,-54 -81,-38.88 -77.58,-1.17 -14.67,-27.54 -57.15,-35.01 m -88.38,54.45 -40.23,0.72 22.32,35.91 -18.45,47.25 -20.43,33.75 68.76,70.38 51.75,34.74 81.09,38.88 75.42,43.92 40.95,-16.65 28.89,-41.4 -7.2,-69.93 -44.73,-15.66 -68.67,-19.53 -57.87,-18.99 -49.32,-31.86 -24.84,-38.79 -37.44,-52.74 m -80.01,153.99 -26.64,49.5 -35.91,22.23 11.07,46.08 43.38,42.39 73.62,-25.74 82.62,6.75 33.75,20.52 45.27,4.95 39.06,22.41 4.68,36.36 -87.84,72.81 39.69,10.08 32.58,-9.09 34.47,-46.44 10.8,-55.71 -25.11,-33.39 -65.25,-32.76 -75.69,-38.52 -65.07,-38.16 -40.77,-39.51 -28.71,-14.76 m 167.94,332.28 -24.12,1.53 -52.74,37.44 -52.74,37.53 56.61,45.63 94.05,-8.64 36.45,-32.94 -12.24,-75.6 -45.27,-4.95"
         style="fill:#ffffff;fill-opacity:1;fill-rule:nonzero;stroke:none"
         id="path9111" />
      <path
         d="m 4314.96,870 -8.88,4.441 -17.98,8.989 -77.43,38.691 -105.68,52.82 -184.95,110.069 -184.54,90 -20.48,9.99 -57.71,32.6 135.21,0.62 85.85,-56.53 401.67,-221.67 -0.14,5.031 0.14,-0.082 4.95,154.981 2.17,120.54 49.89,0.23 -7.06,-295.728 8.86,4.778 -0.22,-41.5 15.41,7.769 L 4314.96,870"
         style="fill:#ffffff;fill-opacity:1;fill-rule:nonzero;stroke:none"
         id="path9113" />
      <path
         d="m 4078.35,1219.53 v 2.1 l -6.66,126.72 -6.66,166.59 -26.73,106.74 -13.32,80.01 -46.62,-20.07 v -459.99 l -63.36,18.36 3.33,54.99 13.32,540 6.66,360 80.01,-13.32 133.38,-66.69 26.64,-119.97 -13.32,-140.04 -46.71,-86.67 -46.62,-46.62 39.96,-106.65 6.66,-180 c 0,0 21.2,-121.65 21.14,-162.37 -0.01,-5 -0.34,-8.78 -1.07,-10.97 -2.16,-6.51 -3.63,-22.82 -4.63,-41.89 l -55.4,-0.26 m -96.66,552.18 v 0 h 53.28 l 60.03,46.62 26.64,86.67 -6.66,106.65 -53.28,80.01 -53.37,13.32 -19.98,-93.33 6.66,-113.31 -13.32,-126.63"
         style="fill:#ffffff;fill-opacity:1;fill-rule:nonzero;stroke:none"
         id="path9115" />
      <path
         d="m 4131.63,1128.3 -53.28,26.64 v 64.59 l 55.4,0.26 c -2.08,-39.75 -2.12,-91.49 -2.12,-91.49"
         style="fill:#ffffff;fill-opacity:1;fill-rule:nonzero;stroke:none"
         id="path9117" />
      <path
         d="m 3858.3,1278.33 -173.25,121.05 -40.05,44.64 v 318.69 l 13.32,459 13.32,146.61 213.39,-127.53 v -70.11 l -146.7,70.11 -19.98,-121.05 v -165.78 l 126.63,-44.55 -6.66,-44.64 -86.67,6.3 -39.96,6.39 v -401.58 l 86.67,-95.58 80.01,-38.25 -20.07,-63.72 m -246.6,163.35 -86.67,33.3 -80.01,520.02 -19.98,-60.03 6.66,-406.62 -66.69,26.64 -13.32,346.68 13.32,266.67 19.98,339.93 60.03,-33.3 -26.64,-379.98 146.61,340.02 53.37,-66.69 -133.38,-266.67 53.37,-333.36 73.35,-326.61 m -306.72,119.97 -59.94,39.96 -33.39,306.72 -86.67,39.96 -46.62,-266.67 -53.37,26.73 46.71,273.33 46.62,226.62 106.65,400.05 40.05,-20.07 13.32,-80.01 6.66,-559.98 19.98,-386.64 m -150.03,476.73 v 0 l 53.37,-33.39 6.66,93.33 6.66,126.72 6.66,133.29 -39.96,-80.01 -13.32,-133.29 -20.07,-106.65 m -172.66,-255.4 -63.95,32.02 8.06,116.22 48.64,538.8 -13.65,-34.47 3.66,52.74 -126.72,-319.95 -53.04,11.77 -63.6,356.51 -0.39,-35.43 -9.6,53.79 -6.66,-600.03 -36.8,7.35 -23.23,12.72 34.05,836.46 39.3,-9.81 99.99,-453.33 4.23,9.14 5.76,-27.5 166.68,360 48.98,-16.33 -47.03,-711.44 -14.68,-179.23 m 3382.69,1261.96 -140.04,30.06 -99.99,80.01 -29.97,99.99 19.98,109.98 -9.99,80.01 -30.06,90 -139.95,-80.01 -99.99,-80.01 -65.07,-70.02 -69.93,-74.97 -38.75,-59.38 -17.59,9.34 -3.51,50.95 7.47,9.62 125.1,155.25 35.1,50.22 50.49,30.24 95.22,48.33 95.67,62.55 55.42,45.89 25.67,-59.21 36.99,-97.11 6.12,-101.88 -21.15,-89.37 20.52,-72.81 63.81,-59.31 92.25,-40.32 65.61,-1.53 9.18,21.33 -29.16,34.92 -59.76,66.51 -7.29,21.06 46.26,99.18 83.43,21.33 28.44,-5.58 52.2,-57.24 51.57,-49.86 18.54,20.79 2.61,53.1 -21.69,96.75 -48.42,52.65 c 0,0 -76.06,34.63 -82.78,34.63 -0.32,0 -0.49,-0.08 -0.47,-0.25 0.01,-0.08 -0.03,-0.12 -0.11,-0.12 -3.46,0 -90.25,82.74 -90.25,82.74 l -75.87,151.83 -0.7,1.49 29.32,31.27 10.8,119.97 6.93,109.44 -40.95,47.25 4.41,86.49 -41.94,73.8 -39.42,11.61 8.82,83.07 -42.21,66.78 -43.65,17.28 13.23,84.51 -49.68,52.83 -55.89,22.95 -100.98,-5.76 -38.95,-33.98 -121.25,257.09 -18.09,76.59 11.7,96.3 20.16,95.85 -41.04,73.26 -79.38,51.57 -124.11,28.98 5.85,-17.01 33.39,-41.85 54.27,-64.26 4.23,-30.78 -53.01,-96.39 -86.49,-17.28 -32.67,7.56 -126.18,111.96 -14.85,-79.11 30.96,-99.45 45.18,-65.25 78.21,-27.54 90.9,-44.55 151.7,-282.27 -36.5,-17.34 -55.71,-28.35 -82.53,-39.87 -68.13,-84.6 -32.67,-85.59 -27.27,-138.87 -50.31,-118.26 -39.51,-96.57 -12.33,-35.55 -39.69,-44.19 -91.35,-151.02 -120.79,-126.62 -61.48,29.74 38.72,34.42 85.05,90 84.96,119.97 64.98,120.06 0.36,0.74 84.69,174.22 25.02,144.99 69.93,189.99 160.02,75.06 -25.02,54.99 -18.45,56.16 -56.52,93.87 -90,54.99 -105.03,54.99 -54.99,174.96 15.03,90 54.99,70.02 175.05,-125.01 59.94,50.04 -74.97,99.99 -15.03,70.02 75.06,29.97 h 99.99 l 129.51,-74.97 55.44,-85.05 -35.01,-189.99 54.99,-164.97 55.08,-95.04 66.15,-23.4 103.77,-1.62 100.08,-69.93 4.95,-90 64.98,-65.07 20.07,-69.93 4.95,-50.04 54.99,-74.97 V 4110 l 45,-64.98 -19.98,-250.02 -19.98,-60.03 59.94,-105.03 90,-59.94 125.01,-85.05 35.01,-234.99 -74.97,-54.99 -140.04,119.97 -64.98,-54.99 102.6,-103.95 -2.61,-71.01 -104.94,-40.05 m -3624,121.6 -9.21,14.39 -85.05,118.44 -46.44,100.8 7.11,66.6 7.65,25.74 15.21,40.23 -40.05,-13.86 -42.75,-68.94 -34.83,-69.3 -69.66,27 -76.86,43.02 -99.27,67.86 -41.22,45.36 42.03,53.19 50.49,-14.31 40.14,13.95 57.69,52.38 45.36,41.22 1.44,31.5 52.11,-65.61 38.25,-25.47 -30.6,74.25 -19.62,30.69 29.61,41.94 14.94,66.33 27,69.66 25.11,30.42 14.94,66.24 19.26,43.47 11.25,35.01 3.78,46.26 21.24,14.94 131.22,-48.69 -121.95,100.08 105.66,-15.12 -82.98,36.81 23.04,21.96 14.94,45 -54.99,-47.52 -64.53,-34.38 -75.42,1.89 -62.55,40.05 -4.23,51.39 37.17,33.66 -7.92,-27.63 45,-17.46 52.47,-25.02 40.05,27.54 -35.01,-12.51 -22.5,17.46 -22.5,22.5 5.04,15.03 42.48,5.04 -37.53,19.98 50.04,45 52.47,14.94 81.26,-13.88 c 4.14,-2.77 8.15,-5.62 12.04,-8.54 l 29.19,-37.52 21.69,-50.04 16.65,-45 35.01,-59.94 36.63,-75.06 v -90 l 30.06,-81.63 -5.04,-85.05 -22.95,-74.25 -97.02,-81.54 -64.53,-80.37 52.47,25.11 89.91,66.69 60.3,24.75 91.8,-59.58 158.85,-141.57 58.61,-51.96 -2.99,-0.6 -144.81,-25.02 -118.98,-39.96 -98.28,-80.01 -41.4,-105.03 -62.01,-74.97 -52.98,-28.43 m -440.04,488.33 -46.8,10.17 -101.52,20.52 -69.75,27 -69.66,27 5.22,27.36 9.72,38.97 32.22,14.22 151.74,-42.75 77.94,-19.44 42.39,-21.78 -2.61,-54.99 -28.89,-26.28 m 1511.99,17.04 -27.89,48.03 109.98,170.01 119.97,189.99 -19.98,55.08 29.97,39.96 -9.99,60.03 -80.01,119.97 -76.33,144.19 -13.67,25.82 -74.97,119.97 v 64.98 l -29.97,25.02 -130.05,265.05 -74.97,164.97 35.01,84.96 80.01,100.08 94.95,49.95 85.05,-29.97 34.92,-45 105.03,54.99 170.01,9.99 54.99,-35.01 109.98,35.01 75.06,-19.98 69.93,59.94 80.01,55.08 80.01,14.94 h 120.06 l 94.95,-39.96 70.02,-70.02 35.01,-54.99 29.97,-80.01 15.03,-105.03 -25.02,-84.96 -15.03,-64.98 -45,-60.03 9.99,-50.04 10.08,-79.92 19.98,-85.05 -30.06,-70.02 -29.97,-64.98 -49.95,-90 -25.02,-64.98 -45.24,-36.2 -54.75,-43.81 -35.01,-80.01 v -64.98 l -64.98,-64.98 -35.01,-99.99 -45,-65.07 -40.05,-109.98 -11.51,-64.37 -63.24,3.39 0.14,7.07 40.86,143.82 16.38,39.06 21.06,26.82 -3.78,36.54 43.83,18.18 -11.88,35.91 26.1,24.48 -1.08,41.94 58.14,28.35 -20.16,34.2 19.89,28.71 -11.88,8.55 c -0.11,0.11 -1.88,1.41 -4.53,3.23 9.78,9.01 21.06,20.25 30.99,30.25 12.87,13.05 23.22,23.94 23.22,23.94 l 3.24,3.42 10.62,68.67 30.69,18.99 53.01,30.24 18.99,51.48 65.88,82.8 12.96,60.12 41.22,57.51 -22.5,71.46 4.23,84.24 -34.47,82.35 -0.81,1.26 c -0.08,0.08 -1.83,2.62 -4.69,6.53 l 0.37,16.42 -9.27,25.92 18.72,23.04 31.32,0.63 25.38,-7.29 11.07,9.81 -5.58,18.99 -13.5,21.51 -2.25,22.59 22.32,16.11 19.98,-0.45 17.28,7.29 4.14,11.43 -14.31,18.81 -19.44,11.79 -8.46,28.62 10.98,16.74 23.4,6.57 10.98,13.32 -3.69,12.06 -23.67,9.09 -22.68,2.97 -12.69,24.12 6.48,19.35 16.2,18.54 6.75,12.33 -10.8,13.77 -23.4,-3.15 -18.99,-7.38 -19.35,8.37 -5.85,29.43 6.57,19.26 -2.16,19.08 -7.02,5.13 -17.37,-3.87 -11.88,-10.71 -24.21,-7.47 -22.23,21.33 -1.44,25.2 -7.29,15.48 -11.34,2.43 -16.2,-15.12 -11.79,-19.44 -22.5,-7.38 -22.86,11.7 -8.28,21.6 -11.52,10.98 -13.95,-1.98 -7.56,-13.23 -3.87,-20.07 -10.08,-19.35 -19.89,-3.06 -28.26,16.83 -20.16,7.38 -9.36,-9.72 1.26,-18.27 5.85,-29.52 -12.78,-15.03 -25.2,-1.35 -19.26,6.48 -15.66,-2.07 -9.27,-11.43 10.8,-20.7 12.69,-25.83 -5.67,-16.65 -13.39,-8.93 -13.16,22.79 -56.43,18.36 -80.28,16.56 -94.5,-27.18 -22.41,-31.23 -10.17,9.63 -42.21,47.07 -64.53,-1.71 -80.91,-0.54 -80.19,-27.99 -39.87,-38.25 -11.52,-47.25 -7.02,-5.67 -3.87,-3.15 -12.94,-50.54 -11.63,25.25 12.6,34.92 -6.84,52.83 -34.38,60.93 -46.17,18.36 -56.88,-36.99 -43.92,-46.26 -28.08,-73.26 12.33,-63.63 30.6,-62.01 34.02,-41.13 -0.36,-48.51 33.84,-25.92 -2.16,-25.65 39.78,-64.8 55.44,-75.24 31.77,-19.53 -5.13,-45 27.36,-17.19 -8.82,-25.83 36.99,-65.97 65.61,-115.29 52.74,-97.2 52.56,-72.09 42.84,-50.4 16.11,-11.79 -19.53,-17.73 22.23,-24.3 -21.15,-22.23 22.86,-15.84 -0.72,-0.63 -4.23,-3.51 -3.96,-23.31 -34.02,-23.31 28.44,-41.31 -67.05,-88.56 -232.21,-319.02 m -1408.22,92.4 -85.41,27.72 -97.02,32.22 -112.05,48.69 -27.72,80.19 74.16,67.41 50.58,-14.22 72.72,-46.89 92.16,-51.66 65.52,-30.69 22.5,-24.75 -18,-46.44 -37.44,-41.58 m 81.72,141.93 -88.47,47.61 -107.91,52.47 -68.58,50.58 -76.41,50.94 2.61,55.08 32.58,22.05 53.28,40.86 64.8,-46.44 91.44,-67.41 95.85,-55.8 49.86,-29.97 -27.36,-77.58 -21.69,-42.39 m 47.52,171.27 -53.55,34.11 -76.41,50.94 -72.36,54.63 -71.91,62.64 -6.75,23.94 21.69,42.3 33.03,29.97 92.88,-35.91 36.9,-27.63 -2.43,-52.56 47.43,-34.92 50.04,-32.58 h 47.52 l 21.42,-23.49 -29.61,-42.03 -37.89,-49.41 m 1992.33,568.71 -38.97,8.73 -64.35,39.6 -32.85,-18.9 -29.7,78.21 -31.23,100.71 -28.71,10.53 -32.4,4.32 -4.23,15.03 -20.16,52.2 -6.93,8.19 28.53,35.55 23.49,93.6 -5.65,4.27 11.59,14.27 49.86,-6.93 70.38,-7.11 30.55,32.24 6.62,-12.08 -4.05,-14.85 -15.3,-17.73 -8.28,-21.06 25.38,-9.09 11.16,6.39 24.48,-1.26 18.72,-23.13 -3.96,-18.36 -7.38,-21.87 9,-13.77 17.37,0.36 19.71,18.72 23.4,1.35 18.72,-21.33 0.45,-20.97 5.67,-20.7 17.46,-3.15 11.07,13.32 16.83,26.46 19.08,3.87 3.18,-2.52 -1.47,-1.89 -3.78,-59.22 8.28,-60.12 10.71,-36.27 -23.76,-10.44 -0.45,-47.16 -30.6,-32.22 -20.34,-47.97 -13.05,-8.46 -26.55,-6.48 -27.54,-2.88 m -146.07,358.65 -35.01,-9.99 -19.98,-45 5.04,-35.01 59.94,-35.01 30.06,-120.06 54.99,-29.97 59.94,-39.96 40.05,39.96 9.99,60.03 9.99,64.98 -54.99,15.03 -60.03,19.98 -54.99,49.95 -45,65.07"
         style="fill:#ffffff;fill-opacity:1;fill-rule:nonzero;stroke:none"
         id="path9119" />
      <path
         d="m 2696.85,3143.31 -71.82,113.67 -41.22,45.36 -39.69,-6.03 -80.55,47.25 -138.69,69.66 -127.7,103.87 9.08,16.64 66.6,106.74 -168.03,46.98 -34.11,-70.53 -99.09,77.28 -4.5,71.19 39.33,80.91 37.08,33.75 -5.22,55.44 2.25,47.25 65.88,59.94 -15.66,83.52 2.97,62.91 61.02,40.5 37.08,33.66 3.06,63 37.8,49.41 53.55,48.69 46.26,8.1 59.94,-25.02 0.47,-0.18 -2.9,-5.58 c 19.77,-24.74 44.26,-34.65 70.57,-34.65 62.32,0 134.87,55.56 179.36,101.25 46.73,-4.08 86.61,-20.69 118.79,-42.23 l -81.26,13.88 -52.47,-14.94 -50.04,-45 37.53,-19.98 -42.48,-5.04 -5.04,-15.03 22.5,-22.5 22.5,-17.46 35.01,12.51 -40.05,-27.54 -52.47,25.02 -45,17.46 7.92,27.63 -37.17,-33.66 4.23,-51.39 62.55,-40.05 75.42,-1.89 64.53,34.38 54.99,47.52 -14.94,-45 -23.04,-21.96 82.98,-36.81 -105.66,15.12 121.95,-100.08 -131.22,48.69 -21.24,-14.94 -3.78,-46.26 -11.25,-35.01 -19.26,-43.47 -14.94,-66.24 -25.11,-30.42 -27,-69.66 -14.94,-66.33 -29.61,-41.94 19.62,-30.69 30.6,-74.25 -38.25,25.47 -52.11,65.61 -1.44,-31.5 -45.36,-41.22 -57.69,-52.38 -40.14,-13.95 -50.49,14.31 -42.03,-53.19 41.22,-45.36 99.27,-67.86 76.86,-43.02 69.66,-27 34.83,69.3 42.75,68.94 40.05,13.86 -15.21,-40.23 -7.65,-25.74 -7.11,-66.6 46.44,-100.8 85.05,-118.44 9.21,-14.39 -38.93,-20.9 c -1.73,-0.78 -3.47,-1.55 -5.2,-2.33 m -636.48,676.8 -32.22,-14.22 -9.72,-38.97 -5.22,-27.36 69.66,-27 69.75,-27 101.52,-20.52 46.8,-10.17 28.89,26.28 2.61,54.99 -42.39,21.78 -77.94,19.44 -151.74,42.75 m 96.3,200.43 -74.16,-67.41 27.72,-80.19 112.05,-48.69 97.02,-32.22 85.41,-27.72 37.44,41.58 18,46.44 -22.5,24.75 -65.52,30.69 -92.16,51.66 -72.72,46.89 -50.58,14.22 m 76.86,205.29 -53.28,-40.86 -32.58,-22.05 -2.61,-55.08 76.41,-50.94 68.58,-50.58 107.91,-52.47 88.47,-47.61 21.69,42.39 27.36,77.58 -49.86,29.97 -95.85,55.8 -91.44,67.41 -64.8,46.44 m 74.16,150.21 -33.03,-29.97 -21.69,-42.3 6.75,-23.94 71.91,-62.64 72.36,-54.63 76.41,-50.94 53.55,-34.11 37.89,49.41 29.61,42.03 -21.42,23.49 h -47.52 l -50.04,32.58 -47.43,34.92 2.43,52.56 -36.9,27.63 -92.88,35.91 m 954.74,-855.48 -58.61,51.96 -158.85,141.57 -91.8,59.58 -60.3,-24.75 -89.91,-66.69 -52.47,-25.11 64.53,80.37 97.02,81.54 22.95,74.25 5.04,85.05 -30.06,81.63 v 90 l -36.63,75.06 -35.01,59.94 -16.65,45 -21.69,50.04 -29.19,37.52 c 2.55,-1.92 5.06,-3.87 7.5,-5.84 l 32.94,37.35 14.25,-0.78 57.84,-134.94 71.64,-125.01 6.66,-103.32 23.4,-74.97 -1.08,-88.02 -4.86,-102.24 137.07,-101.16 151.02,-141.21 65.48,-42.66 -70.23,-14.16"
         style="fill:#3a54ad;fill-opacity:1;fill-rule:nonzero;stroke:none"
         id="path9121" />
      <path
         d="m 2460.61,4367.04 c -26.31,0 -50.8,9.91 -70.57,34.65 l 2.9,5.58 108.16,208.35 -31.14,49.32 68.67,4.77 36.54,70.65 30.42,-2.97 66.96,-25.02 104.04,189.09 144.54,273.51 34.02,64.62 29.88,51.66 27.9,-7.92 25.65,25.02 37.53,54.09 41.67,80.73 38.79,50.22 1.8,-58.41 -22.23,-49.23 -63.99,-129.87 22.5,-30.78 -98.01,-194.49 -205.65,-385.74 62.91,-38.97 12.33,-25.56 -32.76,-82.08 51.57,-53.28 -59.55,3.27 -14.25,0.78 -32.94,-37.35 c -2.44,1.97 -4.95,3.92 -7.5,5.84 -3.89,2.92 -7.9,5.77 -12.04,8.54 -32.18,21.54 -72.06,38.15 -118.79,42.23 -44.49,-45.69 -117.04,-101.25 -179.36,-101.25"
         style="fill:#3a54ad;fill-opacity:1;fill-rule:nonzero;stroke:none"
         id="path9123" />
      <path
         d="m 2985.03,1781.61 -2.74,1.37 14.68,179.23 -11.94,-180.6 m -58.63,149.61 34.99,504.33 13.65,34.47 -48.64,-538.8 m -381.38,10.41 v 0 l 13.32,253.35 6.66,266.67 6.66,286.65 2.34,211.68 -24.03,9.99 -31.23,-4.95 -13.77,-3.42 -126.63,-66.6 -166.5,-37.44 -96.12,24.12 -90.45,72.27 -16.02,36.99 -23.04,130.32 -2.16,116.28 9.99,87.39 22.59,74.61 22.23,49.23 -26.37,24.93 1.62,26.19 56.61,117.03 30.15,-23.52 79.83,-62.91 16.48,-13.4 -31.24,-57.25 -37.35,-41.4 -36.9,-3.33 -19.44,-31.5 -14.76,-51.12 -26.19,-71.46 1.17,-99.81 5.85,-112.95 18.9,-75.69 15.03,-20.52 83.25,-36.63 80.01,0.18 120.96,30.15 118.53,57.96 39.96,7.47 31.32,2.52 36.18,-2.52 162.54,-89.55 246.69,-119.97 286.65,-146.7 306.63,-153.36 253.35,-126.63 246.69,-146.7 -246.69,146.7 -253.35,126.63 -306.63,153.36 -286.65,146.7 -246.69,119.97 -162.54,89.55 -7.47,-52.92 -3.33,-209.97 -6.66,-286.65 -6.66,-266.67 -13.32,-253.35 m 123.22,20.67 -29.89,5.97 26.64,846.72 14.07,-3.51 -34.05,-836.46 23.23,-12.72 m 117.05,217.81 -6.99,1.55 -57,319.53 0.39,35.43 63.6,-356.51 m 43.05,149.87 -5.76,27.5 162.45,350.86 59.94,-20.07 -0.97,-14.62 -48.98,16.33 -166.68,-360"
         style="fill:#3a54ad;fill-opacity:1;fill-rule:nonzero;stroke:none"
         id="path9125" />
      <path
         d="m 4280.04,940.02 -401.67,221.67 401.53,-216.639 0.14,-5.031"
         style="fill:#3a54ad;fill-opacity:1;fill-rule:nonzero;stroke:none"
         id="path9127" />
      <path
         d="m 2190.78,3577.29 -79.02,78.75 100.8,-36.36 -21.78,-42.39"
         style="fill:#3a54ad;fill-opacity:1;fill-rule:nonzero;stroke:none"
         id="path9129" />
      <path
         d="m 2197.18,3517.09 -16.48,13.4 -79.83,62.91 -30.15,23.52 34.11,70.53 168.03,-46.98 -66.6,-106.74 -9.08,-16.64 m -85.42,138.95 79.02,-78.75 21.78,42.39 -100.8,36.36"
         style="fill:#3a54ad;fill-opacity:1;fill-rule:nonzero;stroke:none"
         id="path9131" />
      <path
         d="m 3837.66,3654.96 231.6,318.06 79.83,105.66 -23.58,34.38 19.62,13.41 4.32,25.11 26.46,22.32 -26.19,18.18 16.29,17.19 -20.79,22.68 24.39,22.05 -42.84,31.5 -39.87,46.89 -50.76,69.57 -51.84,95.76 -65.7,115.47 -30.42,54.18 12.06,35.64 -31.41,19.8 5.22,45.09 -43.2,26.55 -51.12,69.57 -34.02,55.26 2.79,32.22 -35.01,26.82 0.27,44.46 -38.79,46.8 -27.18,55.26 -9.9,51.3 22.86,59.67 37.35,39.33 40.86,26.55 21.96,-8.73 26.28,-46.53 5.13,-39.87 -14.31,-39.6 33.84,-73.44 20.79,-29.52 27.18,10.53 -7.92,64.35 9.72,37.71 7.11,5.76 3.87,3.15 11.79,48.6 28.89,27.72 69.3,24.12 76.32,0.45 50.94,1.35 33.75,-37.62 36,-34.02 36.36,50.58 77.49,22.32 71.37,-14.67 43.83,-14.31 1.88,-3.26 -7.91,-1.6 -3.96,-14.85 17.64,-15.3 14.22,-11.88 8.19,-14.67 -3.96,-18.36 -4.45,-2.42 -36.32,60.11 -91.98,26.37 -96.12,-44.01 -22.14,-21.51 31.23,-50.76 60.39,2.52 50.49,9.45 70.44,-20.17 -0.69,-5.66 24.13,-6.91 -16.39,-17.3 -55.17,5.58 -66.06,9.18 -21.42,-26.28 -36.27,-13.23 3.12,-2.36 -68.91,-14.56 -45.9,59.76 -21.69,-96.84 -13.23,-97.56 51.12,-4.68 62.73,28.71 36.94,124.37 26.24,-19.88 -17.01,-67.95 -39.87,-49.68 19.53,-23.22 17.82,-46.17 9.27,-32.76 48.69,-6.39 11.61,-4.32 27.18,-87.39 42.48,-112.14 47.97,27.63 53.28,-32.94 48.78,-10.89 34.38,3.69 33.57,8.19 24.93,16.29 21.78,51.3 35.01,36.9 0.36,39.6 30.24,13.32 -17.55,59.31 -7.65,54.99 2,30.57 2.95,-4.83 11.05,-9.05 9.11,-68.35 9,-32.4 84.78,0.45 4.05,32.22 -10.8,52.11 -26.1,37.44 -44.43,26.23 11.85,8.87 c 2.66,0.15 5.3,0.38 7.92,0.72 2.45,0.36 4.85,0.76 7.27,1.4 l 3.78,0.21 c 0.04,-0.03 0.07,-0.05 0.11,-0.08 2.79,-2.07 6.66,-5.67 10.44,-9.9 5.76,-6.21 11.7,-13.68 16.02,-19.53 2.25,-2.88 4.05,-5.4 5.31,-7.2 l 1.06,-1.46 30.62,-73.15 -4.14,-82.8 19.53,-62.28 -36.09,-50.4 -12.78,-59.31 -64.53,-81.09 -16.92,-45.72 -43.92,-25.11 -42.93,-26.55 -11.25,-73.01 c -6.49,-6.77 -21.76,-22.64 -36.27,-36.79 -7.38,-7.29 -14.67,-14.04 -20.16,-18.81 -0.95,-0.82 -1.85,-1.58 -2.68,-2.27 -1.07,-0.04 -2.33,-0.19 -3.8,-0.61 -2.7,-0.72 -6.39,-2.7 -8.73,-6.12 -2.43,-3.33 -2.97,-7.02 -2.97,-9.45 0,-1.62 0.18,-2.88 0.45,-4.05 0.54,-2.7 2.52,-6.66 5.94,-9.09 3.42,-2.52 7.11,-3.15 9.45,-3.15 1.09,0.03 2.02,0.13 2.83,0.27 0.44,-0.27 0.9,-0.55 1.37,-0.84 l -13.74,-19.86 13.41,-22.68 -46.35,-22.59 1.26,-47.79 -30.24,-28.35 9.09,-27.72 -38.7,-16.11 4.86,-46.62 -16.11,-20.43 -18.63,-44.55 -42.48,-149.22 -0.2,-9.96 -31.97,1.72 2.38,36.68 67.95,167.13 17.01,54.81 -53.37,8.55 -80.91,-8.91 -78.12,-25.74 -49.86,13.5 -33.93,-57.6 -180.02,-254.97 -45.16,-17.46 -48.33,-66.69 -18.21,-6.66 m 332.85,458.91 -17.64,-2.07 33.21,-17.01 61.38,21.15 54.54,1.44 67.23,5.04 36.99,-3.87 34.11,-13.5 -21.6,26.64 -45.09,5.22 -54.36,-4.59 -56.16,0.09 -52.47,-19.08 -40.14,0.54 m 164.34,104.76 -74.88,-30.15 -45.9,-22.05 -32.58,-28.26 61.38,28.98 72.99,30.87 65.7,3.33 43.38,-0.45 35.55,-11.88 20.82,-14.41 c 1.38,-1.91 2.53,-3.13 3.21,-3.13 0.25,0 0.43,0.17 0.54,0.53 l -3.75,2.6 c -4.97,6.85 -12.99,22.6 -12.99,22.6 l -35.19,16.74 -98.28,4.68 m 121.41,71.37 -184.95,-14.04 -62.46,-35.91 -25.02,-29.16 56.97,33.21 49.32,18.99 95.94,12.15 93.06,-0.72 39.24,-21.06 -23.49,31.14 -38.61,5.4 m -362.97,530.46 -43.38,-51.93 -82.8,-13.86 -50.4,-81.36 81.27,-144.81 99.9,-176.58 85.95,-93.78 44.91,21.69 58.05,24.75 181.26,9.27 89.82,43.38 32.58,74.34 c 0,0 -24.03,66.6 -20.16,109.17 l -10.08,40.77 -92.07,15.84 -49.95,28.44 -58.5,-40.05 -45,118.8 -34.47,101.52 -54.45,6.57 -132.48,7.83 m 502.92,-244.35 2.52,-33.66 13.95,-36.09 40.14,-9 18.54,-1.08 25.2,26.82 -45.18,28.8 c 0,0 -28.26,36.18 -31.59,42.48 -0.25,0.46 -0.42,0.68 -0.51,0.68 -1.17,0 9.42,-34.16 9.42,-34.16 l 19.89,-25.11 16.38,-12.42 -9.36,-9.9 -29.16,12.06 -23.22,28.26 -7.02,22.32 m 90.36,149.67 -21.51,-43.11 -32.22,-59.13 37.26,-42.12 39.96,-38.25 39.6,48.33 29.79,66.42 -44.91,41.58 -47.97,26.28 m 78.57,12.06 -79.56,-2.25 34.92,-5.4 40.32,-10.17 24.75,-41.04 23.31,45.54 -12.24,36.63 -27.63,13.68 -43.29,0.45 -18.99,-10.17 20.97,-4.23 32.13,-2.34 23.85,-16.74 1.17,-19.53 -19.71,15.57 m -837.36,56.25 16.11,-2.79 -23.31,-31.05 -16.2,-53.37 7.65,14.58 29.43,40.95 23.4,24.66 -10.53,31.86 -5.85,14.67 -24.39,-23.58 -35.19,-63.45 18.45,29.34 20.43,18.18 m 134.55,69.39 -26.28,-37.62 -18.63,-37.17 27.09,19.8 20.16,27.45 17.19,15.21 -23.22,28.26 -33.03,-24.93 -24.84,-29.52 41.04,23.58 20.52,14.94 m -248.58,106.2 -48.78,-29.16 29.43,-54.18 41.76,-59.67 46.71,-34.02 41.22,62.37 -26.64,58.86 -42.57,55.17 -41.13,0.63 m 378.72,-50.85 -16.02,-4.14 -71.46,-13.68 39.78,-3.24 30.6,-3.96 8.64,-23.85 -67.5,-30.15 20.07,6.39 48.06,1.26 25.38,10.35 2.61,22.5 -20.16,38.52 m -315.18,123.12 7.74,-56.52 41.76,-59.58 48.06,-86.04 61.92,67.32 -9.99,78.3 -37.98,54.99 -61.2,-11.61 -50.31,13.14 m -108.09,-19.44 17.82,-4.32 -14.04,-14.76 -26.82,-18.45 -9.09,-20.43 17.46,9.45 36.27,21.87 31.68,16.83 13.77,24.48 -9.81,6.12 -35.91,-10.62 -32.94,3.96 -33.21,-18.54 19.17,3.78 25.65,0.63 m 305.73,110.97 -57.87,-43.92 35.01,-61.92 22.86,105.84 m -330.93,155.79 -51.12,-42.57 -37.17,-78.21 18.54,-79.02 34.29,-38.52 86.58,23.94 -3.87,25.38 -31.77,75.87 17.01,45.72 -32.49,67.41 m 120.96,-185.58 2.25,-30.69 50.31,-13.23 51.93,3.87 -38.16,17.82 -47.52,38.79 -13.32,18.9 13.68,-34.92 21.51,-20.34 -30.69,7.29 -9.99,12.51 m 264.78,69.93 12.06,-41.67 14.94,-20.43 29.07,-5.67 32.04,0.81 22.68,9.63 -31.05,4.59 -35.55,18.63 -9.27,36.36 -7.38,-24.21 29.7,-31.32 -27.54,10.44 -29.7,42.84 m -101.64,89.93 c -11.72,0 -21.86,-0.23 -27.69,-0.83 -21.6,-2.34 -93.69,-38.7 -93.69,-38.7 l -1.98,-68.31 60.84,-49.68 22.5,20.34 15.75,25.11 74.88,26.73 54.99,37.98 -30.24,45.72 c 0,0 -43.5,1.64 -75.36,1.64 m 688.84,-303.61 0.05,0.65 1.18,0.88 -1.23,-1.53"
         style="fill:#3a54ad;fill-opacity:1;fill-rule:nonzero;stroke:none"
         id="path9133" />
      <path
         d="m 3787.16,3636.5 25.77,35.41 232.21,319.02 67.05,88.56 -28.44,41.31 34.02,23.31 3.96,23.31 4.23,3.51 0.72,0.63 -22.86,15.84 21.15,22.23 -22.23,24.3 19.53,17.73 -16.11,11.79 -42.84,50.4 -52.56,72.09 -52.74,97.2 -65.61,115.29 -36.99,65.97 8.82,25.83 -27.36,17.19 5.13,45 -31.77,19.53 -55.44,75.24 -39.78,64.8 2.16,25.65 -33.84,25.92 0.36,48.51 -34.02,41.13 -30.6,62.01 -12.33,63.63 28.08,73.26 43.92,46.26 56.88,36.99 46.17,-18.36 34.38,-60.93 6.84,-52.83 -12.6,-34.92 11.63,-25.25 12.94,50.54 3.87,3.15 7.02,5.67 11.52,47.25 39.87,38.25 80.19,27.99 80.91,0.54 64.53,1.71 42.21,-47.07 10.17,-9.63 22.41,31.23 94.5,27.18 80.28,-16.56 56.43,-18.36 13.16,-22.79 -5.51,-3.67 -14.76,0.54 -11.26,-2.27 -1.88,3.26 -43.83,14.31 -71.37,14.67 -77.49,-22.32 -36.36,-50.58 -36,34.02 -33.75,37.62 -50.94,-1.35 -76.32,-0.45 -69.3,-24.12 -28.89,-27.72 -11.79,-48.6 -3.87,-3.15 -7.11,-5.76 -9.72,-37.71 7.92,-64.35 -27.18,-10.53 -20.79,29.52 -33.84,73.44 14.31,39.6 -5.13,39.87 -26.28,46.53 -21.96,8.73 -40.86,-26.55 -37.35,-39.33 -22.86,-59.67 9.9,-51.3 27.18,-55.26 38.79,-46.8 -0.27,-44.46 35.01,-26.82 -2.79,-32.22 34.02,-55.26 51.12,-69.57 43.2,-26.55 -5.22,-45.09 31.41,-19.8 -12.06,-35.64 30.42,-54.18 65.7,-115.47 51.84,-95.76 50.76,-69.57 39.87,-46.89 42.84,-31.5 -24.39,-22.05 20.79,-22.68 -16.29,-17.19 26.19,-18.18 -26.46,-22.32 -4.32,-25.11 -19.62,-13.41 23.58,-34.38 -79.83,-105.66 -231.6,-318.06 -50.5,-18.46 m 613.07,172.49 -30.03,1.61 0.2,9.96 42.48,149.22 18.63,44.55 16.11,20.43 -4.86,46.62 38.7,16.11 -9.09,27.72 30.24,28.35 -1.26,47.79 46.35,22.59 -13.41,22.68 13.74,19.86 c -0.47,0.29 -0.93,0.57 -1.37,0.84 -0.81,-0.14 -1.74,-0.24 -2.83,-0.27 -2.34,0 -6.03,0.63 -9.45,3.15 -3.42,2.43 -5.4,6.39 -5.94,9.09 -0.27,1.17 -0.45,2.43 -0.45,4.05 0,2.43 0.54,6.12 2.97,9.45 2.34,3.42 6.03,5.4 8.73,6.12 1.47,0.42 2.73,0.57 3.8,0.61 0.83,0.69 1.73,1.45 2.68,2.27 5.49,4.77 12.78,11.52 20.16,18.81 14.51,14.15 29.78,30.02 36.27,36.79 l 11.25,73.01 42.93,26.55 43.92,25.11 16.92,45.72 64.53,81.09 12.78,59.31 36.09,50.4 -19.53,62.28 4.14,82.8 -30.62,73.15 -1.06,1.46 c -1.26,1.8 -3.06,4.32 -5.31,7.2 -4.32,5.85 -10.26,13.32 -16.02,19.53 -3.78,4.23 -7.65,7.83 -10.44,9.9 -0.04,0.03 -0.07,0.05 -0.11,0.08 l 8.03,0.46 16.11,-17.1 13.23,-9.27 16.38,6.39 0.08,3.65 c 2.86,-3.91 4.61,-6.45 4.69,-6.53 l 0.81,-1.26 34.47,-82.35 -4.23,-84.24 22.5,-71.46 -41.22,-57.51 -12.96,-60.12 -65.88,-82.8 -18.99,-51.48 -53.01,-30.24 -30.69,-18.99 -10.62,-68.67 -3.24,-3.42 c 0,0 -10.35,-10.89 -23.22,-23.94 -9.93,-10 -21.21,-21.24 -30.99,-30.25 2.65,-1.82 4.42,-3.12 4.53,-3.23 l 11.88,-8.55 -19.89,-28.71 20.16,-34.2 -58.14,-28.35 1.08,-41.94 -26.1,-24.48 11.88,-35.91 -43.83,-18.18 3.78,-36.54 -21.06,-26.82 -16.38,-39.06 -40.86,-143.82 -0.14,-7.07 m 216.41,541.4 v 0 m -92.07,265.41 -48.78,10.89 -53.28,32.94 -47.97,-27.63 -42.48,112.14 -27.18,87.39 -11.61,4.32 -48.69,6.39 -9.27,32.76 -17.82,46.17 -19.53,23.22 39.87,49.68 17.01,67.95 -26.24,19.88 0.32,1.09 -1.38,-0.29 -3.12,2.36 36.27,13.23 21.42,26.28 66.06,-9.18 55.17,-5.58 16.39,17.3 1.34,-0.38 19.26,-6.57 5.17,-9.43 -30.55,-32.24 -70.38,7.11 -49.86,6.93 -11.59,-14.27 5.65,-4.27 -23.49,-93.6 -28.53,-35.55 6.93,-8.19 20.16,-52.2 4.23,-15.03 32.4,-4.32 28.71,-10.53 31.23,-100.71 29.7,-78.21 32.85,18.9 64.35,-39.6 38.97,-8.73 27.54,2.88 26.55,6.48 13.05,8.46 20.34,47.97 30.6,32.22 0.45,47.16 23.76,10.44 -10.71,36.27 -8.28,60.12 3.78,59.22 1.47,1.89 17.16,-13.59 9.65,-15.78 -2,-30.57 7.65,-54.99 17.55,-59.31 -30.24,-13.32 -0.36,-39.6 -35.01,-36.9 -21.78,-51.3 -24.93,-16.29 -33.57,-8.19 -34.38,-3.69 m 208.53,356.85 1.8,1.35 13.39,0.77 c -2.42,-0.64 -4.82,-1.04 -7.27,-1.4 -2.62,-0.34 -5.26,-0.57 -7.92,-0.72"
         style="fill:#3a54ad;fill-opacity:1;fill-rule:nonzero;stroke:none"
         id="path9135" />
      <path
         d="m 4183.83,4258.14 -85.95,93.78 -99.9,176.58 -81.27,144.81 50.4,81.36 82.8,13.86 43.38,51.93 132.48,-7.83 54.45,-6.57 34.47,-101.52 45,-118.8 58.5,40.05 49.95,-28.44 92.07,-15.84 10.08,-40.77 c -3.87,-42.57 20.16,-109.17 20.16,-109.17 l -32.58,-74.34 -89.82,-43.38 -181.26,-9.27 -58.05,-24.75 -44.91,-21.69 m 5.85,181.71 -21.87,-7.92 21.15,-34.47 35.73,-26.64 20.07,6.03 -15.75,40.14 -39.33,22.86 m 284.58,-47.43 v 0 l -2.16,14.22 -10.17,16.56 -22.59,14.49 -18.81,5.76 -1.53,-12.51 8.64,-21.96 19.08,-14.58 27.54,-1.98 m -456.57,329.13 4.14,-40.14 20.61,-39.6 20.7,-3.24 3.24,42.93 -25.47,37.71 -23.22,2.34 m 221.31,23.85 -6.3,-10.8 -0.9,-23.58 11.61,-21.06 24.48,-12.78 3.69,13.86 -2.7,19.26 -14.94,22.41 -14.94,12.69"
         style="fill:#ffffff;fill-opacity:1;fill-rule:nonzero;stroke:none"
         id="path9137" />
      <path
         d="m 4128.93,4928.82 -51.12,4.68 13.23,97.56 21.69,96.84 45.9,-59.76 68.91,14.56 1.38,0.29 -0.32,-1.09 -36.94,-124.37 -62.73,-28.71"
         style="fill:#ffffff;fill-opacity:1;fill-rule:nonzero;stroke:none"
         id="path9139" />
      <path
         d="m 4396.29,5139.68 -70.44,20.17 -50.49,-9.45 -60.39,-2.52 -31.23,50.76 22.14,21.51 96.12,44.01 91.98,-26.37 36.32,-60.11 -17.06,-9.28 -14.67,-9.9 -2.28,-18.82"
         style="fill:#ffffff;fill-opacity:1;fill-rule:nonzero;stroke:none"
         id="path9141" />
      <path
         d="m 4710.06,4543.17 -39.96,38.25 -37.26,42.12 32.22,59.13 21.51,43.11 47.97,-26.28 44.91,-41.58 -29.79,-66.42 -39.6,-48.33"
         style="fill:#ffffff;fill-opacity:1;fill-rule:nonzero;stroke:none"
         id="path9143" />
      <path
         d="m 3974.85,4839.81 -48.06,86.04 -41.76,59.58 -7.74,56.52 50.31,-13.14 61.2,11.61 37.98,-54.99 9.99,-78.3 -61.92,-67.32"
         style="fill:#ffffff;fill-opacity:1;fill-rule:nonzero;stroke:none"
         id="path9145" />
      <path
         d="m 3965.58,5106.03 -60.84,49.68 1.98,68.31 c 0,0 72.09,36.36 93.69,38.7 5.83,0.6 15.97,0.83 27.69,0.83 31.86,0 75.36,-1.64 75.36,-1.64 l 30.24,-45.72 -54.99,-37.98 -74.88,-26.73 -15.75,-25.11 -22.5,-20.34"
         style="fill:#ffffff;fill-opacity:1;fill-rule:nonzero;stroke:none"
         id="path9147" />
      <path
         d="m 3882.87,4792.65 -46.71,34.02 -41.76,59.67 -29.43,54.18 48.78,29.16 41.13,-0.63 42.57,-55.17 26.64,-58.86 -41.22,-62.37"
         style="fill:#ffffff;fill-opacity:1;fill-rule:nonzero;stroke:none"
         id="path9149" />
      <path
         d="m 3708.54,5050.95 -34.29,38.52 -18.54,79.02 37.17,78.21 51.12,42.57 32.49,-67.41 -17.01,-45.72 31.77,-75.87 3.87,-25.38 -86.58,-23.94"
         style="fill:#ffffff;fill-opacity:1;fill-rule:nonzero;stroke:none"
         id="path9151" />
      <path
         d="m 3949.36,3745.77 180.02,254.97 33.93,57.6 49.86,-13.5 78.12,25.74 80.91,8.91 53.37,-8.55 -17.01,-54.81 -67.95,-167.13 -2.38,-36.68 -49.64,2.66 -139.59,-15.03 -150.03,-35.01 -49.61,-19.17 m 380.63,240.66 -17.1,-25.74 -8.28,-33.21 9.27,-11.97 22.32,23.85 4.86,34.47 -11.07,12.6 m -139.86,20.43 -11.79,-4.32 -15.75,-17.55 -4.59,-23.49 10.62,-25.56 11.7,8.28 10.26,16.56 2.88,26.64 -3.33,19.44"
         style="fill:#ffffff;fill-opacity:1;fill-rule:nonzero;stroke:none"
         id="path9153" />
      <path
         d="m 4474.26,4392.42 -27.54,1.98 -19.08,14.58 -8.64,21.96 1.53,12.51 18.81,-5.76 22.59,-14.49 10.17,-16.56 2.16,-14.22 m -39.42,35.1 7.02,-9 -7.65,-0.81 2.79,-3.78 7.38,-0.09 8.19,-7.2 1.8,1.26 -4.59,4.95 6.93,4.32 -2.07,2.52 -8.91,-0.81 -7.65,7.83 -3.24,0.81"
         style="fill:#3a54ad;fill-opacity:1;fill-rule:nonzero;stroke:none"
         id="path9155" />
      <path
         d="m 4452.57,4406.64 -8.19,7.2 -7.38,0.09 -2.79,3.78 7.65,0.81 -7.02,9 3.24,-0.81 7.65,-7.83 8.91,0.81 2.07,-2.52 -6.93,-4.32 4.59,-4.95 -1.8,-1.26"
         style="fill:#ffffff;fill-opacity:1;fill-rule:nonzero;stroke:none"
         id="path9157" />
      <path
         d="m 4267.89,4677.18 -24.48,12.78 -11.61,21.06 0.9,23.58 6.3,10.8 14.94,-12.69 14.94,-22.41 2.7,-19.26 -3.69,-13.86 m -26.55,39.24 0.99,-4.59 6.75,-3.06 4.59,-9.81 2.16,0.36 -2.25,6.39 8.1,1.17 -0.9,3.24 -8.46,2.79 -3.87,10.17 -2.7,2.07 2.88,-11.07 -7.29,2.34"
         style="fill:#3a54ad;fill-opacity:1;fill-rule:nonzero;stroke:none"
         id="path9159" />
      <path
         d="m 4253.67,4698.96 -4.59,9.81 -6.75,3.06 -0.99,4.59 7.29,-2.34 -2.88,11.07 2.7,-2.07 3.87,-10.17 8.46,-2.79 0.9,-3.24 -8.1,-1.17 2.25,-6.39 -2.16,-0.36"
         style="fill:#ffffff;fill-opacity:1;fill-rule:nonzero;stroke:none"
         id="path9161" />
      <path
         d="m 4168.62,3935.94 -10.62,25.56 4.59,23.49 15.75,17.55 11.79,4.32 3.33,-19.44 -2.88,-26.64 -10.26,-16.56 -11.7,-8.28 m 4.68,47.16 -2.07,-4.23 3.24,-6.66 -2.79,-10.53 1.8,-0.99 2.43,6.3 7.02,-4.32 1.35,3.06 -4.68,7.56 3.51,10.26 -0.72,3.33 -4.95,-10.35 -4.14,6.57"
         style="fill:#3a54ad;fill-opacity:1;fill-rule:nonzero;stroke:none"
         id="path9163" />
      <path
         d="m 4173.48,3960.69 -1.8,0.99 2.79,10.53 -3.24,6.66 2.07,4.23 4.14,-6.57 4.95,10.35 0.72,-3.33 -3.51,-10.26 4.68,-7.56 -1.35,-3.06 -7.02,4.32 -2.43,-6.3"
         style="fill:#ffffff;fill-opacity:1;fill-rule:nonzero;stroke:none"
         id="path9165" />
      <path
         d="m 4224.69,4370.82 -35.73,26.64 -21.15,34.47 21.87,7.92 39.33,-22.86 15.75,-40.14 -20.07,-6.03 m -4.77,17.64 v 0 l -1.75,11.88 8.32,-3.69 -2.07,5.49 -6.96,3.03 -1.23,8.4 -6.21,2.25 1.27,-7.96 -14.77,6.43 1.35,-4.95 14.19,-6.29 1.56,-9.82 6.3,-4.77"
         style="fill:#3a54ad;fill-opacity:1;fill-rule:nonzero;stroke:none"
         id="path9167" />
      <path
         d="m 4219.92,4388.46 -6.3,4.77 -1.56,9.82 6.11,-2.71 1.75,-11.88 m -2.46,16.71 -6.17,2.69 -1.27,7.96 6.21,-2.25 1.23,-8.4"
         style="fill:#ffffff;fill-opacity:1;fill-rule:nonzero;stroke:none"
         id="path9169" />
      <path
         d="m 4226.49,4396.65 -8.32,3.69 -6.11,2.71 -14.19,6.29 -1.35,4.95 14.77,-6.43 6.17,-2.69 6.96,-3.03 2.07,-5.49"
         style="fill:#ffffff;fill-opacity:1;fill-rule:nonzero;stroke:none"
         id="path9171" />
      <path
         d="m 4063.14,4638.57 -20.7,3.24 -20.61,39.6 -4.14,40.14 23.22,-2.34 25.47,-37.71 -3.24,-42.93 m -18.07,37.79 -2.81,-9.53 3.51,-7.02 3.58,11.47 5.87,-6.97 0.63,5.76 -5.04,5.87 2.52,8.08 -4.59,4.77 -2.3,-7.78 -10.48,12.19 -0.9,-4.95 10.01,-11.89"
         style="fill:#3a54ad;fill-opacity:1;fill-rule:nonzero;stroke:none"
         id="path9173" />
      <path
         d="m 4045.77,4659.81 -3.51,7.02 2.81,9.53 4.28,-5.08 -3.58,-11.47 m 5.04,16.13 -4.37,5.07 2.3,7.78 4.59,-4.77 -2.52,-8.08"
         style="fill:#ffffff;fill-opacity:1;fill-rule:nonzero;stroke:none"
         id="path9175" />
      <path
         d="m 4055.22,4664.31 -5.87,6.97 -4.28,5.08 -10.01,11.89 0.9,4.95 10.48,-12.19 4.37,-5.07 5.04,-5.87 -0.63,-5.76"
         style="fill:#ffffff;fill-opacity:1;fill-rule:nonzero;stroke:none"
         id="path9177" />
      <path
         d="m 4313.88,3915.51 -9.27,11.97 8.28,33.21 17.1,25.74 11.07,-12.6 -4.86,-34.47 -22.32,-23.85 m 8.54,25.95 -0.26,-6.87 3.06,3.06 0.18,5.86 5.22,3.59 -0.09,5.04 -4.97,-3.47 0.38,12.2 -2.88,-2.52 -0.44,-11.74 -6.13,-4.28 -1.44,-5.94 7.37,5.07"
         style="fill:#3a54ad;fill-opacity:1;fill-rule:nonzero;stroke:none"
         id="path9179" />
      <path
         d="m 4315.05,3936.39 1.44,5.94 6.13,4.28 -0.2,-5.15 -7.37,-5.07 m 10.35,7.12 0.16,5.16 4.97,3.47 0.09,-5.04 -5.22,-3.59"
         style="fill:#ffffff;fill-opacity:1;fill-rule:nonzero;stroke:none"
         id="path9181" />
      <path
         d="m 4322.16,3934.59 0.26,6.87 0.2,5.15 0.44,11.74 2.88,2.52 -0.38,-12.2 -0.16,-5.16 -0.18,-5.86 -3.06,-3.06"
         style="fill:#ffffff;fill-opacity:1;fill-rule:nonzero;stroke:none"
         id="path9183" />
      <path
         d="m 4185.81,5105.85 -29.07,5.67 -14.94,20.43 -12.06,41.67 29.7,-42.84 27.54,-10.44 -29.7,31.32 7.38,24.21 9.27,-36.36 35.55,-18.63 31.05,-4.59 -22.68,-9.63 -32.04,-0.81"
         style="fill:#ffffff;fill-opacity:1;fill-rule:nonzero;stroke:none"
         id="path9185" />
      <path
         d="m 3917.52,5059.77 -50.31,13.23 -2.25,30.69 9.99,-12.51 30.69,-7.29 -21.51,20.34 -13.68,34.92 13.32,-18.9 47.52,-38.79 38.16,-17.82 -51.93,-3.87"
         style="fill:#ffffff;fill-opacity:1;fill-rule:nonzero;stroke:none"
         id="path9187" />
      <path
         d="m 3737.07,4964.55 9.09,20.43 26.82,18.45 14.04,14.76 -17.82,4.32 -25.65,-0.63 -19.17,-3.78 33.21,18.54 32.94,-3.96 35.91,10.62 9.81,-6.12 -13.77,-24.48 -31.68,-16.83 -36.27,-21.87 -17.46,-9.45"
         style="fill:#ffffff;fill-opacity:1;fill-rule:nonzero;stroke:none"
         id="path9189" />
      <path
         d="m 3904.38,4706.88 16.2,53.37 23.31,31.05 -16.11,2.79 -20.43,-18.18 -18.45,-29.34 35.19,63.45 24.39,23.58 5.85,-14.67 10.53,-31.86 -23.4,-24.66 -29.43,-40.95 -7.65,-14.58"
         style="fill:#ffffff;fill-opacity:1;fill-rule:nonzero;stroke:none"
         id="path9191" />
      <path
         d="m 4017.42,4788.69 18.63,37.17 26.28,37.62 -20.52,-14.94 -41.04,-23.58 24.84,29.52 33.03,24.93 23.22,-28.26 -17.19,-15.21 -20.16,-27.45 -27.09,-19.8"
         style="fill:#ffffff;fill-opacity:1;fill-rule:nonzero;stroke:none"
         id="path9193" />
      <path
         d="m 4116.51,4839.81 67.5,30.15 -8.64,23.85 -30.6,3.96 -39.78,3.24 71.46,13.68 16.02,4.14 20.16,-38.52 -2.61,-22.5 -25.38,-10.35 -48.06,-1.26 -20.07,-6.39"
         style="fill:#ffffff;fill-opacity:1;fill-rule:nonzero;stroke:none"
         id="path9195" />
      <path
         d="m 4671.36,4496.28 -18.54,1.08 -40.14,9 -13.95,36.09 -2.52,33.66 7.02,-22.32 23.22,-28.26 29.16,-12.06 9.36,9.9 -16.38,12.42 -19.89,25.11 c 0,0 -10.59,34.16 -9.42,34.16 0.09,0 0.26,-0.22 0.51,-0.68 3.33,-6.3 31.59,-42.48 31.59,-42.48 l 45.18,-28.8 -25.2,-26.82"
         style="fill:#ffffff;fill-opacity:1;fill-rule:nonzero;stroke:none"
         id="path9197" />
      <path
         d="m 4785.57,4678.98 -24.75,41.04 -40.32,10.17 -34.92,5.4 79.56,2.25 19.71,-15.57 -1.17,19.53 -23.85,16.74 -32.13,2.34 -20.97,4.23 18.99,10.17 43.29,-0.45 27.63,-13.68 12.24,-36.63 -23.31,-45.54"
         style="fill:#ffffff;fill-opacity:1;fill-rule:nonzero;stroke:none"
         id="path9199" />
      <path
         d="m 4183.83,4210.89 25.02,29.16 62.46,35.91 184.95,14.04 38.61,-5.4 23.49,-31.14 -39.24,21.06 -93.06,0.72 -95.94,-12.15 -49.32,-18.99 -56.97,-33.21"
         style="fill:#ffffff;fill-opacity:1;fill-rule:nonzero;stroke:none"
         id="path9201" />
      <path
         d="m 4181.49,4138.17 32.58,28.26 45.9,22.05 74.88,30.15 98.28,-4.68 35.19,-16.74 c 0,0 8.02,-15.75 12.99,-22.6 l -20.82,14.41 -35.55,11.88 -43.38,0.45 -65.7,-3.33 -72.99,-30.87 -61.38,-28.98 m 303.03,33.31 c -0.68,0 -1.83,1.22 -3.21,3.13 l 3.75,-2.6 c -0.11,-0.36 -0.29,-0.53 -0.54,-0.53"
         style="fill:#ffffff;fill-opacity:1;fill-rule:nonzero;stroke:none"
         id="path9203" />
      <path
         d="m 4186.08,4094.79 -33.21,17.01 17.64,2.07 40.14,-0.54 52.47,19.08 56.16,-0.09 54.36,4.59 45.09,-5.22 21.6,-26.64 -34.11,13.5 -36.99,3.87 -67.23,-5.04 -54.54,-1.44 -61.38,-21.15"
         style="fill:#ffffff;fill-opacity:1;fill-rule:nonzero;stroke:none"
         id="path9205" />
      <path
         d="m 4052.07,5027.64 -35.01,61.92 57.87,43.92 -22.86,-105.84"
         style="fill:#ffffff;fill-opacity:1;fill-rule:nonzero;stroke:none"
         id="path9207" />
      <path
         d="m 4695.64,4916.08 -11.05,9.05 -2.95,4.83 -9.65,15.78 -17.16,13.59 -3.18,2.52 -19.08,-3.87 -16.83,-26.46 -11.07,-13.32 -17.46,3.15 -5.67,20.7 -0.45,20.97 -18.72,21.33 -23.4,-1.35 -19.71,-18.72 -17.37,-0.36 -9,13.77 7.38,21.87 3.96,18.36 -18.72,23.13 -24.48,1.26 -11.16,-6.39 -25.38,9.09 8.28,21.06 15.3,17.73 4.05,14.85 -6.62,12.08 -5.17,9.43 -19.26,6.57 -1.34,0.38 -24.13,6.91 0.69,5.66 2.28,18.82 14.67,9.9 17.06,9.28 4.45,2.42 3.96,18.36 -8.19,14.67 -14.22,11.88 -17.64,15.3 3.96,14.85 7.91,1.6 11.26,2.27 14.76,-0.54 5.51,3.67 13.39,8.93 5.67,16.65 -12.69,25.83 -10.8,20.7 9.27,11.43 15.66,2.07 19.26,-6.48 25.2,1.35 12.78,15.03 -5.85,29.52 -1.26,18.27 9.36,9.72 20.16,-7.38 28.26,-16.83 19.89,3.06 10.08,19.35 3.87,20.07 7.56,13.23 13.95,1.98 11.52,-10.98 8.28,-21.6 22.86,-11.7 22.5,7.38 11.79,19.44 16.2,15.12 11.34,-2.43 7.29,-15.48 1.44,-25.2 22.23,-21.33 24.21,7.47 11.88,10.71 17.37,3.87 7.02,-5.13 2.16,-19.08 -6.57,-19.26 5.85,-29.43 19.35,-8.37 18.99,7.38 23.4,3.15 10.8,-13.77 -6.75,-12.33 -16.2,-18.54 -6.48,-19.35 12.69,-24.12 22.68,-2.97 23.67,-9.09 3.69,-12.06 -10.98,-13.32 -23.4,-6.57 -10.98,-16.74 8.46,-28.62 19.44,-11.79 14.31,-18.81 -4.14,-11.43 -17.28,-7.29 -19.98,0.45 -22.32,-16.11 2.25,-22.59 13.5,-21.51 5.58,-18.99 -11.07,-9.81 -25.38,7.29 -31.32,-0.63 -18.72,-23.04 9.27,-25.92 -0.37,-16.42 -0.08,-3.65 -16.38,-6.39 -13.23,9.27 -16.11,17.1 -8.03,-0.46 -3.78,-0.21 -13.39,-0.77 -1.8,-1.35 -11.85,-8.87 -0.84,0.5 -2.24,-2.81 -1.18,-0.88 -0.05,-0.65 -23.26,-29.14 1.96,-14.72 m -66.13,147.11 20.07,-2.16 23.49,-0.36 0.18,-8.73 21.69,3.06 15.57,5.58 -0.36,15.66 18.09,8.19 11.16,8.1 14.94,-4.05 10.98,13.23 10.89,20.25 -7.2,10.35 6.75,14.04 3.96,14.85 12.15,5.49 2.25,16.56 -1.35,20.07 -10.44,3.24 -4.77,18.18 c 0,0 -2.88,12.96 -4.68,16.38 -1.28,2.49 2.29,2.85 4.47,2.85 0.9,0 1.56,-0.06 1.56,-0.06 v 0 0 l -6.48,16.38 -10.71,13.68 -10.35,-1.89 -16.83,10.98 -10.71,11.88 -2.88,13.05 -14.13,10.08 -22.68,3.06 -4.05,-13.14 -18.36,3.96 -19.17,-0.45 -5.4,10.35 -16.56,-1.17 -18.9,-9.09 1.17,-13.05 -12.06,-9 -15.48,-10.71 -13.14,5.76 -13.77,-8.91 -9.99,-17.64 9.72,-9.36 -7.47,-16.74 -6.57,-17.55 -13.95,-0.27 -2.34,-13.14 3.06,-19.89 12.33,-10.26 3.06,-18.18 5.58,-17.28 -9.45,-8.01 11.79,-19.8 12.42,-11.97 7.74,4.59 14.13,-11.88 12.42,-11.97 0.18,-8.73 19.35,-8.28 15.75,-4.86 3.33,8.73"
         style="fill:#3a54ad;fill-opacity:1;fill-rule:nonzero;stroke:none"
         id="path9209" />
      <path
         d="m 4713.75,4815.33 -9,32.4 -9.11,68.35 -1.96,14.72 23.26,29.14 1.23,1.53 2.24,2.81 0.84,-0.5 44.43,-26.23 26.1,-37.44 10.8,-52.11 -4.05,-32.22 -84.78,-0.45"
         style="fill:#ffffff;fill-opacity:1;fill-rule:nonzero;stroke:none"
         id="path9211" />
      <path
         d="m 4673.25,5051.94 -0.18,8.73 -23.49,0.36 -20.07,2.16 -3.33,-8.73 -15.75,4.86 -19.35,8.28 -0.18,8.73 -12.42,11.97 -14.13,11.88 -7.74,-4.59 -12.42,11.97 -11.79,19.8 9.45,8.01 -5.58,17.28 -3.06,18.18 -12.33,10.26 -3.06,19.89 2.34,13.14 13.95,0.27 6.57,17.55 7.47,16.74 -9.72,9.36 9.99,17.64 13.77,8.91 13.14,-5.76 15.48,10.71 12.06,9 -1.17,13.05 18.9,9.09 16.56,1.17 5.4,-10.35 19.17,0.45 18.36,-3.96 4.05,13.14 22.68,-3.06 14.13,-10.08 2.88,-13.05 10.71,-11.88 16.83,-10.98 10.35,1.89 10.71,-13.68 6.48,-16.38 c 0,0 -0.66,0.06 -1.56,0.06 -2.18,0 -5.75,-0.36 -4.47,-2.85 1.8,-3.42 4.68,-16.38 4.68,-16.38 l 4.77,-18.18 10.44,-3.24 1.35,-20.07 -2.25,-16.56 -12.15,-5.49 -3.96,-14.85 -6.75,-14.04 7.2,-10.35 -10.89,-20.25 -10.98,-13.23 -14.94,4.05 -11.16,-8.1 -18.09,-8.19 0.36,-15.66 -15.57,-5.58 -21.69,-3.06 m -60.84,49.32 33.75,-12.51 2.52,-11.25 38.79,3.69 -1.26,12.51 26.19,20.07 11.25,-5.04 18.81,23.76 -8.82,7.47 12.51,31.23 13.77,2.52 -1.26,36.27 h -11.25 l -11.25,25.02 6.3,11.25 -36.27,21.24 -7.47,-7.47 -26.28,8.73 1.26,11.25 -38.79,-1.26 -1.26,-9.99 -24.93,-13.77 -12.51,7.47 -30.06,-27.45 6.3,-8.73 -7.56,-28.8 -11.25,-2.52 2.52,-39.96 11.25,-1.26 13.77,-27.54 -6.21,-8.73 26.19,-23.76 11.25,7.56"
         style="fill:#3a54ad;fill-opacity:1;fill-rule:nonzero;stroke:none"
         id="path9213" />
      <path
         d="m 4648.68,5077.5 -2.52,11.25 -33.75,12.51 -11.25,-7.56 -26.19,23.76 6.21,8.73 -13.77,27.54 -11.25,1.26 -2.52,39.96 11.25,2.52 7.56,28.8 -6.3,8.73 30.06,27.45 12.51,-7.47 24.93,13.77 1.26,9.99 38.79,1.26 -1.26,-11.25 26.28,-8.73 7.47,7.47 36.27,-21.24 -6.3,-11.25 11.25,-25.02 h 11.25 l 1.26,-36.27 -13.77,-2.52 -12.51,-31.23 8.82,-7.47 -18.81,-23.76 -11.25,5.04 -26.19,-20.07 1.26,-12.51 -38.79,-3.69"
         style="fill:#ffffff;fill-opacity:1;fill-rule:nonzero;stroke:none"
         id="path9215" />
      <path
         d="m 5640.12,3230.89 -5.4,78.19 38.07,57.79 53.55,53.55 37.26,58.05 -63.27,-19.17 -70.83,23.13 -57.42,77.49 -67.86,71.55 c 0,0 -60.57,34.38 -69.03,42.03 -8.37,7.56 -48.15,53.73 -48.15,53.73 l -39.06,30.15 9.63,21.96 -40.59,-44.91 -83.52,-148.68 -92.08,-101.88 -45.98,-8.91 -32.77,15.85 120.79,126.62 91.35,151.02 39.69,44.19 12.33,35.55 39.51,96.57 50.31,118.26 27.27,138.87 32.67,85.59 68.13,84.6 82.53,39.87 55.71,28.35 36.5,17.34 23.44,-43.62 c 59.67,24.93 109.89,35.1 167.94,65.97 l -20.86,44.23 38.95,33.98 100.98,5.76 55.89,-22.95 49.68,-52.83 -13.23,-84.51 43.65,-17.28 42.21,-66.78 -8.82,-83.07 39.42,-11.61 41.94,-73.8 -4.41,-86.49 40.95,-47.25 -6.93,-109.44 -10.8,-119.97 -29.32,-31.27 -34.86,74.41 14.14,-6.96 10.35,62.1 -44.06,-13.39 -3.91,8.35 c -61.56,-24.57 -128.07,-38.7 -190.44,-70.47 l 4.52,-8.12 -10.55,-6.28 -36.9,-12.6 -37.26,48.96 -20.16,28.44 -39.87,-4.68 -48.33,2.97 -23.58,41.58 3.51,37.71 -16.83,15.21 -38.7,-82.26 -48.42,-47.97 h -107.1 l 102.33,39.96 47.7,63.99 28.53,71.01 -11.61,71.64 2.61,53.73 -20.43,33.75 -41.58,-23.49 -87.39,33.03 74.79,3.78 47.52,13.14 30.42,33.66 31.77,6.93 -11.7,20.79 -33.66,30.42 26.28,62.91 10.26,-45 36.72,-38.25 52.2,-26.82 67.5,-9.99 61.2,5.76 -38.97,30.15 -49.41,24.21 -23.76,47.07 22.59,30.51 53.1,8.1 -16.83,15.21 -67.05,55.53 -56.7,10.53 -47.25,-18.45 -59.94,-32.49 -73.44,-30.42 -83.34,-47.07 -42.84,-53.01 -49.23,-138.96 -36.81,-119.61 -42.93,-103.95 -28.08,-81.72 2.43,-48.06 99.9,-69.93 59.4,-63.9 132.66,-135.27 125.37,9 89.19,36.63 109.17,64.35 82.53,63.09 8.53,5.59 21.15,-48.8 -55.42,-45.89 -95.67,-62.55 -95.22,-48.33 -50.49,-30.24 -35.1,-50.22 -125.1,-155.25 -7.47,-9.62 m 599.13,796.22 -156.87,-21.33 -70.11,-43.65 -4.86,-61.83 24.3,-57.69 57.15,35.01 14.67,27.54 77.58,1.17 81,38.88 8.01,54 -30.87,27.9 m -75.69,175.5 -75.42,-43.92 -81.09,-38.88 -51.75,-34.74 -68.76,-70.38 20.43,-33.75 18.45,-47.25 -22.32,-35.91 40.23,-0.72 37.44,52.74 24.84,38.79 49.32,31.86 57.87,18.99 68.67,19.53 44.73,15.66 7.2,69.93 -28.89,41.4 -40.95,16.65 m -308.34,8.64 -43.38,-42.39 -11.07,-46.08 35.91,-22.23 26.64,-49.5 28.71,14.76 40.77,39.51 65.07,38.16 75.69,38.52 65.25,32.76 25.11,33.39 -10.8,55.71 -34.47,46.44 -32.58,9.09 -39.69,-10.08 87.84,-72.81 -4.68,-36.36 -39.06,-22.41 -45.27,-4.95 -33.75,-20.52 -82.62,-6.75 -73.62,25.74 m 103.05,294.21 -56.61,-45.63 52.74,-37.53 52.74,-37.44 24.12,-1.53 45.27,4.95 12.24,75.6 -36.45,32.94 -94.05,8.64"
         style="fill:#3a54ad;fill-opacity:1;fill-rule:nonzero;stroke:none"
         id="path9217" />
      <path
         d="m 6394.41,3111.45 -65.61,1.53 -92.25,40.32 -63.81,59.31 -20.52,72.81 21.15,89.37 -6.12,101.88 -36.99,97.11 -25.67,59.21 -21.15,48.8 -34.18,78.83 -23.38,42.01 -4.52,8.12 c 62.37,31.77 128.88,45.9 190.44,70.47 l 3.91,-8.35 19.57,-41.75 34.86,-74.41 0.7,-1.49 75.87,-151.83 c 0,0 86.79,-82.74 90.25,-82.74 0.08,0 0.12,0.04 0.11,0.12 -0.02,0.17 0.15,0.25 0.47,0.25 6.72,0 82.78,-34.63 82.78,-34.63 l 48.42,-52.65 21.69,-96.75 -2.61,-53.1 -18.54,-20.79 -51.57,49.86 -52.2,57.24 -28.44,5.58 -83.43,-21.33 -46.26,-99.18 7.29,-21.06 59.76,-66.51 29.16,-34.92 -9.18,-21.33"
         style="fill:#3a54ad;fill-opacity:1;fill-rule:nonzero;stroke:none"
         id="path9219" />
      <path
         d="m 5719.46,4457.64 -151.7,282.27 -90.9,44.55 -78.21,27.54 -45.18,65.25 -30.96,99.45 14.85,79.11 126.18,-111.96 32.67,-7.56 86.49,17.28 53.01,96.39 -4.23,30.78 -54.27,64.26 -33.39,41.85 -5.85,17.01 124.11,-28.98 79.38,-51.57 41.04,-73.26 -20.16,-95.85 -11.7,-96.3 18.09,-76.59 121.25,-257.09 -11.9,-10.39 -23.85,-25.83 -45.54,12.06 -66.42,-31.59 -22.81,-10.83"
         style="fill:#3a54ad;fill-opacity:1;fill-rule:nonzero;stroke:none"
         id="path9221" />
      <path
         d="m 5742.9,4414.02 -23.44,43.62 22.81,10.83 66.42,31.59 45.54,-12.06 23.85,25.83 11.9,10.39 20.86,-44.23 c -58.05,-30.87 -108.27,-41.04 -167.94,-65.97"
         style="fill:#3a54ad;fill-opacity:1;fill-rule:nonzero;stroke:none"
         id="path9223" />
      <path
         d="m 4459.19,1221.28 -15.17,112.67 v 133.38 l -3.42,58.32 72.45,-5.04 -10.35,-104.94 3.42,-88.38 28.52,-105.66 -75.45,-0.35 m 99.98,0.46 40.1,17.26 17.19,126.63 v 129.96 l -10.35,110.07 -44.82,114.93 -48.24,46.71 -48.33,80.01 -24.12,158.31 48.33,106.65 82.71,66.69 82.71,-46.62 13.86,-86.67 -10.35,-145.08 -55.17,20.07 10.35,144.99 -27.63,53.28 -68.94,-53.28 -6.93,-80.01 17.28,-98.37 55.17,-80.01 49.95,-66.6 41.4,-70.02 5.22,-99.99 5.13,-95.04 -5.13,-115.02 -10.35,-114.93 -17.68,-23.5 -91.36,-0.42 m 258.42,1.19 251.93,147.02 331.02,186.66 282.69,160.02 172.44,93.33 27.54,506.7 13.86,239.94 20.7,293.4 6.84,80.01 -351.63,-166.68 -482.76,-260.01 -462.06,-233.37 -278.19,-144.99 c 0,0 2.43,-208.35 2.43,-228.33 0,-12.6 -5.51,-128.58 -9.58,-212.55 l 2.64,501.9 165.52,89.01 234.45,126.63 241.38,140.04 372.42,193.32 220.59,113.31 317.25,160.02 -55.17,19.98 -110.34,46.71 -110.34,66.6 6.93,-59.94 -55.17,-73.35 -137.97,-73.35 -172.35,-26.64 -151.74,6.66 -117.18,46.62 -117.27,60.03 -55.17,46.71 v 139.95 l -6.84,99.99 27.54,66.69 89.64,53.37 110.34,26.64 -144.81,60.03 -172.35,53.28 -41.4,6.66 -34.47,-239.94 -268.92,-66.69 -317.25,6.66 -186.21,60.03 -34.47,126.63 20.7,140.04 -165.51,-60.03 -158.58,-53.37 144.81,-59.94 34.47,-106.74 6.93,-133.29 -20.7,-93.33 -48.33,-99.99 -241.29,-53.37 -227.61,6.66 -172.35,26.73 -110.34,99.99 -13.86,133.29 -75.78,-46.62 -209.7,-111.69 155.07,-74.97 215.01,-99.99 259.92,-130.05 241.65,-116.64 263.43,-138.33 114.02,-62.74 -1329.02,627.76 129.24,64.98 47.77,25.64 38.93,20.9 52.98,28.43 62.01,74.97 41.4,105.03 98.28,80.01 118.98,39.96 144.81,25.02 2.99,0.6 70.23,14.16 50.89,10.26 48.36,-11.14 60.27,-13.88 222.39,90 72.59,26.54 50.5,18.46 18.21,6.66 48.33,66.69 45.16,17.46 49.61,19.17 150.03,35.01 139.59,15.03 49.64,-2.66 31.97,-1.72 30.03,-1.61 63.24,-3.39 11.33,-0.61 93.06,-29.97 51.75,-25.02 36.18,-35.01 20.7,-50.04 67.23,-45 93.15,-35.01 103.41,-34.92 60.91,-29.47 61.48,-29.74 32.77,-15.85 45.98,8.91 31.6,6.12 191.34,-5.04 129.33,-35.01 82.71,-54.99 56.88,-64.98 1.44,-20.89 5.4,-78.19 3.51,-50.95 17.59,-9.34 85.91,-45.65 113.76,-49.95 77.58,-19.98 46.53,-25.02 -5.22,-64.98 -10.26,-165.06 -10.35,-194.94 -15.57,-225 -10.35,-250.02 -20.61,-350.01 -98.28,-70.02 -150.03,-70.02 -196.56,-119.97 -243,-135 -227.61,-109.98 -81.23,-51.62 -98.34,-0.45 m 769.16,2052.05 -32.13,-39.96 -107.1,-46.71 -53.55,-19.98 -110.61,-6.66 105.3,-46.71 -53.55,-39.96 48.15,-26.64 -74.88,-26.73 74.88,-26.64 -99.9,-46.71 137.43,20.07 69.57,33.3 53.55,39.96 32.13,33.39 10.71,99.99 v 99.99 m -710.28,9.99 -13.77,-186.66 75.87,-60.03 c 0,0 124.11,-53.28 144.81,-59.94 16.56,-5.4 151.74,-18.36 151.74,-18.36 l 67.14,32.49 -85.32,29.97 90.54,27.54 -54.27,25.02 62.01,37.44 -77.58,47.52 11.25,11.7 c 0,0 -9.72,1.53 -24.03,3.96 -37.17,6.12 -105.93,17.91 -120.78,22.68 -20.7,6.66 -131.04,19.98 -131.04,19.98 l -96.57,66.69 m -1219.59,-9.18 -147.51,-63.27 -133.47,-17.55 107.64,-33.3 -111.33,-12.51 125.1,-47.52 -113.22,-19.17 120.15,-27.45 -137.97,-52.56 54.18,-12.51 111.87,25.83 94.95,26.73 23.67,39.96 11.88,106.65 -5.94,86.67 m -725.04,-10.8 -6.84,-53.37 6.84,-86.67 55.17,-79.92 124.11,-33.39 117.27,-19.98 113.76,0.81 -65.52,49.14 96.57,3.33 -103.41,36.72 108.54,25.83 -108.54,27.45 95.67,32.58 -54.36,27.45 -124.11,-9.99 -165.51,46.71 -89.64,33.3 m 2282.58,163.35 -172.44,-19.98 -151.74,-46.71 27.63,-46.71 186.21,-59.94 220.68,-19.98 151.65,39.96 103.41,53.37 -124.11,66.6 -151.65,33.39 h -89.64 m -1820.52,59.94 -158.67,-19.98 -186.12,-39.96 -96.57,-60.03 -27.54,-60.03 130.95,-46.62 199.98,-19.98 193.14,13.32 151.65,39.96 62.1,40.05 -27.63,53.28 -103.41,60.03 -137.88,39.96 m 1220.13,171.27 -56.88,-24.57 -94.86,-26.19 -82.26,-20.52 89.64,-26.64 -117.27,-39.96 110.34,-33.39 -131.04,-59.94 96.57,-40.05 -144.81,-80.01 106.56,3.24 144.54,21.78 79.47,36.27 14.4,94.23 7.29,130.5 -21.69,65.25 m -698.58,-32.58 -33.48,-144.99 16.74,-94.32 108.9,-43.47 159.12,-28.98 77.94,-2.7 18.09,17.46 89.64,51.66 -117.18,53.37 118.08,42.48 -108.63,45 118.98,45 -93.15,15.03 -95.4,-6.3 -167.49,14.49 -92.16,36.27 m 326.61,141.3 -184.23,-28.98 -108.9,-43.47 -33.48,-43.47 175.86,-36.27 200.97,14.49 175.95,28.98 125.55,50.76 -83.7,43.47 -268.02,14.49 m 524.43,-2492.64 5.13,223.38 -6.93,239.94 -13.77,266.67 -13.77,233.37 75.87,59.94 75.87,20.07 48.24,-33.39 13.77,-80.01 v -146.61 l 6.93,-153.36 -6.93,-113.31 -34.47,-71.73 -75.87,-28.26 -6.84,-81.72 5.13,-164.97 -7.2,-115.65 -65.16,-54.36 m 98.19,970.02 -67.23,-35.01 8.64,-178.38 6.93,-133.29 15.48,-133.38 41.4,5.04 31.05,60.03 1.71,61.65 v 113.31 113.31 l -6.93,96.66 -31.05,30.06 m 111.78,-825.66 8.91,165.6 8.64,65.07 5.22,69.93 v 98.37 l 20.61,116.64 5.22,135 -5.22,115.02 15.57,195.03 60.3,45 20.7,-99.99 13.77,-133.38 29.34,-96.66 20.7,-135 51.66,-195.03 25.92,-99.99 25.83,-49.95 -36.18,-45 -46.53,-9.99 -20.7,80.01 -10.35,79.92 -15.48,95.04 -86.22,-43.29 -1.71,-46.71 -12.06,-113.31 v -99.99 l 1.71,-46.71 -33.12,-25.65 -46.53,-19.98 m 105.48,770.67 -10.35,-99.99 -5.13,-150.03 -5.22,-81.63 62.1,36.63 -10.35,105.03 -31.05,189.99 m 284.58,-547.47 -52.74,25.47 -21.78,46.35 -31.05,94.95 -20.07,104.76 -16.02,130.68 0.45,155.07 c 0,0 6.84,119.97 9,139.86 2.16,19.89 25.92,111.33 25.92,111.33 l 75.6,85.23 72.72,7.56 63.99,-54 7.56,-121.41 -1.98,-89.1 -67.23,-34.92 10.35,156.78 -44.37,38.07 -50.94,-21.69 -23.04,-84.78 -9.99,-125.19 5.4,-135.27 9.18,-132.93 15.48,-110.07 25.92,-99.99 40.23,-10.35 32.13,65.34 15.57,115.02 72.36,35.01 -8.46,-134.01 -59.85,-111.69 -74.34,-46.08 m 192.6,86.76 -6.84,106.65 v 153.36 l -6.93,180 5.22,154.98 -5.22,180 5.22,120.06 30.96,24.93 32.76,33.39 89.64,53.28 99.99,53.37 V 2715 l -65.52,-51.66 -79.29,-38.34 -41.31,-40.05 v -70.02 l -5.22,-64.98 5.22,-90 17.19,9.99 55.17,46.71 46.53,13.32 8.64,-33.3 -3.42,-66.69 -86.22,-40.05 -43.11,-19.98 -5.13,-126.63 10.35,-108.36 5.13,-174.96 18.99,3.33 68.94,53.28 62.1,33.39 v -90 l -56.97,-45 -156.87,-85.05 m -1399.77,798.39 -275.85,93.33 -75.87,133.29 13.77,220.05 34.47,113.31 48.33,26.64 172.35,60.03 199.98,19.98 317.25,-46.62 117.18,-93.33 48.33,-86.67 -6.93,-313.38 -103.41,-93.33 -241.38,-26.64 -248.22,-6.66 m -273.87,426.6 -15.75,-79.92 7.83,-126.72 47.25,-86.67 118.08,-39.96 165.24,-33.39 124.47,1.71 -87.93,22.5 100.8,32.49 -64.62,25.02 69.84,37.44 -118.98,37.53 113.76,37.53 -121.5,74.97 -63,17.55 -181.08,39.96 c 0,0 -78.75,19.98 -94.41,39.96 m 411.75,-103.32 137.97,-83.34 -96.57,-26.64 110.34,-33.3 -82.8,-40.05 96.57,-33.3 -103.41,-19.98 29.07,-23.4 140.31,6.66 84.15,13.41 77.22,66.6 14.04,106.65 -9.27,128.34 -80.37,-51.66 -117.27,-19.98 -115.83,-3.33 -84.15,13.32 m -120.15,289.98 -191.16,-53.28 -95.58,-60.03 44.19,-59.94 146.97,-46.71 213.21,-19.98 264.6,-6.66 130.95,59.94 -35.37,66.69 -73.53,66.69 -242.55,53.28 h -161.73"
         style="fill:#ffffff;fill-opacity:1;fill-rule:nonzero;stroke:none"
         id="path9225" />
      <path
         d="m 4338.63,888.27 0.22,41.5 123.89,66.859 241.29,160.021 113.56,66.28 98.34,0.45 -76.11,-48.37 -23.65,-15.03 -118.98,-64.98 -113.76,-70.02 -82.8,-54.988 -128.95,-65.051 -17.64,-8.902 -15.41,-7.769 m 184.77,257.4 -62.1,59.94 -2.11,15.67 75.45,0.35 2.53,-9.36 22,9.47 91.36,0.42 -37.49,-49.85 -89.64,-26.64"
         style="fill:#ffffff;fill-opacity:1;fill-rule:nonzero;stroke:none"
         id="path9227" />
      <path
         d="m 2205,2965.02 -80.01,24.93 -25.02,70.02 -14.94,109.98 9.99,80.01 4.95,95.04 45,35.01 60.03,39.96 95.04,-49.95 129.96,-60.03 80.01,-54.99 h 64.98 l 74.97,-125.01 -84.96,-45 h -54.99 l -85.05,-40.05 -104.94,-49.95 -115.02,-29.97"
         style="fill:#e63b3d;fill-opacity:1;fill-rule:nonzero;stroke:none"
         id="path9229" />
      <path
         d="m 4535.19,4689.87 -59.94,39.96 -54.99,29.97 -30.06,120.06 -59.94,35.01 -5.04,35.01 19.98,45 35.01,9.99 45,-65.07 54.99,-49.95 60.03,-19.98 54.99,-15.03 -9.99,-64.98 -9.99,-60.03 -40.05,-39.96"
         style="fill:#e63b3d;fill-opacity:1;fill-rule:nonzero;stroke:none"
         id="path9231" />
      <path
         d="m 4275,1220.44 v 169.58 l 5.04,244.98 14.94,295.02 v 184.95 l -209.97,113.31 209.97,-108.27 v -200.07 l -9.99,-259.92 5.04,-280.08 -2.87,-159.45 -12.16,-0.05"
         style="fill:#3a54ad;fill-opacity:1;fill-rule:nonzero;stroke:none"
         id="path9233" />
      <path
         d="m 4280.04,944.969 -0.14,0.082 -4.9,169.929 v 105.46 l 12.16,0.05 -2.17,-120.54 -4.95,-154.981"
         style="fill:#3a54ad;fill-opacity:1;fill-rule:nonzero;stroke:none"
         id="path9235" />
      <path
         d="m 2979.99,1754.97 -64.98,50.04 11.39,126.21 -8.06,-116.22 63.95,-32.02 -2.3,-28.01 m -264.96,181.71 -46.79,25.62 36.8,-7.35 6.66,600.03 9.6,-53.79 -6.27,-564.51 m 281.94,25.53 47.03,711.44 10.96,-3.65 -57.99,-707.79 m -148.65,187.77 -60.03,13.32 -3,16.81 53.04,-11.77 126.72,319.95 -3.66,-52.74 -113.07,-285.57 m -29.97,198.36 -99.99,453.33 -39.3,9.81 0.96,23.49 49.95,-35.01 92.61,-442.48 -4.23,-9.14"
         style="fill:#3a54ad;fill-opacity:1;fill-rule:nonzero;stroke:none"
         id="path9237" />
      <path
         d="m 3792.52,1218.22 -187.48,123.47 -346.68,166.59 -300.06,180 -199.98,126.72 -213.3,126.63 13.32,253.35 6.66,266.67 6.66,286.65 3.33,209.97 7.47,52.92 162.54,-89.55 246.69,-119.97 286.65,-146.7 306.63,-153.36 253.35,-126.63 246.69,-146.7 209.97,-113.31 V 1930.02 L 4280.04,1635 4275,1390.02 v -169.58 l -141.25,-0.65 c 1,19.07 2.47,35.38 4.63,41.89 0.73,2.19 1.06,5.97 1.07,10.97 0.06,40.72 -21.14,162.37 -21.14,162.37 l -6.66,180 -39.96,106.65 46.62,46.62 46.71,86.67 13.32,140.04 -26.64,119.97 -133.38,66.69 -80.01,13.32 -6.66,-360 -13.32,-540 -3.33,-54.99 63.36,-18.36 v 459.99 l 46.62,20.07 13.32,-80.01 26.73,-106.74 6.66,-166.59 6.66,-126.72 v -2.1 l -285.83,-1.31 M 3645,1444.02 v 0 l 40.05,-44.64 173.25,-121.05 20.07,63.72 -80.01,38.25 -86.67,95.58 v 401.58 l 39.96,-6.39 86.67,-6.3 6.66,44.64 -126.63,44.55 v 165.78 l 19.98,121.05 146.7,-70.11 v 70.11 l -213.39,127.53 -13.32,-146.61 -13.32,-459 v -318.69 m -33.3,-2.34 v 0 l -73.35,326.61 -53.37,333.36 133.38,266.67 -53.37,66.69 -146.61,-340.02 26.64,379.98 -60.03,33.3 -19.98,-339.93 -13.32,-266.67 13.32,-346.68 66.69,-26.64 -6.66,406.62 19.98,60.03 80.01,-520.02 86.67,-33.3 m -306.72,119.97 v 0 l -19.98,386.64 -6.66,559.98 -13.32,80.01 -40.05,20.07 -106.65,-400.05 -46.62,-226.62 -46.71,-273.33 53.37,-26.73 46.62,266.67 86.67,-39.96 33.39,-306.72 59.94,-39.96 m -378.58,369.57 -11.39,-126.21 64.98,-50.04 2.3,28.01 2.74,-1.37 11.94,180.6 57.99,707.79 -10.96,3.65 0.97,14.62 -59.94,20.07 -162.45,-350.86 -92.61,442.48 -49.95,35.01 -0.96,-23.49 -14.07,3.51 -26.64,-846.72 29.89,-5.97 46.79,-25.62 6.27,564.51 57,-319.53 6.99,-1.55 3,-16.81 60.03,-13.32 113.07,285.57 -34.99,-504.33"
         style="fill:#3a54ad;fill-opacity:1;fill-rule:nonzero;stroke:none"
         id="path9239" />
      <path
         d="m 4279.9,945.051 -401.53,216.639 -85.85,56.53 285.83,1.31 v -64.59 l 53.28,-26.64 c 0,0 0.04,51.74 2.12,91.49 l 141.25,0.65 v -105.46 l 4.9,-169.929"
         style="fill:#3a54ad;fill-opacity:1;fill-rule:nonzero;stroke:none"
         id="path9241" />
      <path
         d="m 4034.97,1771.71 h -53.28 l 13.32,126.63 -6.66,113.31 19.98,93.33 53.37,-13.32 53.28,-80.01 6.66,-106.65 -26.64,-86.67 -60.03,-46.62"
         style="fill:#3a54ad;fill-opacity:1;fill-rule:nonzero;stroke:none"
         id="path9243" />
      <path
         d="m 3208.32,2004.99 -53.37,33.39 20.07,106.65 13.32,133.29 39.96,80.01 -6.66,-133.29 -6.66,-126.72 -6.66,-93.33"
         style="fill:#3a54ad;fill-opacity:1;fill-rule:nonzero;stroke:none"
         id="path9245" />
      <path
         d="m 4325.04,2175 -285.03,149.94 -185.95,102.32 181.18,-85.58 310.23,-153.36 -0.01,-2.34 -20.42,-10.98"
         style="fill:#e63b3d;fill-opacity:1;fill-rule:nonzero;stroke:none"
         id="path9247" />
      <path
         d="m 4345.46,2185.98 0.01,2.34 -310.23,153.36 -181.18,85.58 -114.02,62.74 -263.43,138.33 -241.65,116.64 -259.92,130.05 -215.01,99.99 -155.07,74.97 209.7,111.69 75.78,46.62 13.86,-133.29 110.34,-99.99 172.35,-26.73 227.61,-6.66 241.29,53.37 48.33,99.99 20.7,93.33 -6.93,133.29 -34.47,106.74 -144.81,59.94 158.58,53.37 165.51,60.03 -20.7,-140.04 34.47,-126.63 186.21,-60.03 317.25,-6.66 268.92,66.69 34.47,239.94 41.4,-6.66 172.35,-53.28 144.81,-60.03 -110.34,-26.64 -89.64,-53.37 -27.54,-66.69 6.84,-99.99 v -139.95 l 55.17,-46.71 117.27,-60.03 117.18,-46.62 151.74,-6.66 172.35,26.64 137.97,73.35 55.17,73.35 -6.93,59.94 110.34,-66.6 110.34,-46.71 55.17,-19.98 -317.25,-160.02 -220.59,-113.31 -372.42,-193.32 -241.38,-140.04 -234.45,-126.63 -165.52,-89.01 m -68.93,1008.99 -199.98,-19.98 -172.35,-60.03 -48.33,-26.64 -34.47,-113.31 -13.77,-220.05 75.87,-133.29 275.85,-93.33 248.22,6.66 241.38,26.64 103.41,93.33 6.93,313.38 -48.33,86.67 -117.18,93.33 -317.25,46.62"
         style="fill:#e63b3d;fill-opacity:1;fill-rule:nonzero;stroke:none"
         id="path9249" />
      <path
         d="m 4091.31,3616.08 -175.86,36.27 33.48,43.47 108.9,43.47 184.23,28.98 268.02,-14.49 83.7,-43.47 -125.55,-50.76 -175.95,-28.98 -200.97,-14.49"
         style="fill:#e63b3d;fill-opacity:1;fill-rule:nonzero;stroke:none"
         id="path9251" />
      <path
         d="m 5324.76,3235.02 -220.68,19.98 -186.21,59.94 -27.63,46.71 151.74,46.71 172.44,19.98 h 89.64 l 151.65,-33.39 124.11,-66.6 -103.41,-53.37 -151.65,-39.96"
         style="fill:#e63b3d;fill-opacity:1;fill-rule:nonzero;stroke:none"
         id="path9253" />
      <path
         d="m 4559.31,2895 -264.6,6.66 -213.21,19.98 -146.97,46.71 -44.19,59.94 95.58,60.03 191.16,53.28 h 161.73 l 242.55,-53.28 73.53,-66.69 35.37,-66.69 -130.95,-59.94"
         style="fill:#e63b3d;fill-opacity:1;fill-rule:nonzero;stroke:none"
         id="path9255" />
      <path
         d="m 3255.93,3241.68 -199.98,19.98 -130.95,46.62 27.54,60.03 96.57,60.03 186.12,39.96 158.67,19.98 137.88,-39.96 103.41,-60.03 27.63,-53.28 -62.1,-40.05 -151.65,-39.96 -193.14,-13.32"
         style="fill:#e63b3d;fill-opacity:1;fill-rule:nonzero;stroke:none"
         id="path9257" />
      <path
         d="m 4244.67,3312.51 -77.94,2.7 -159.12,28.98 -108.9,43.47 -16.74,94.32 33.48,144.99 92.16,-36.27 167.49,-14.49 95.4,6.3 93.15,-15.03 -118.98,-45 108.63,-45 -118.08,-42.48 117.18,-53.37 -89.64,-51.66 -18.09,-17.46"
         style="fill:#3a54ad;fill-opacity:1;fill-rule:nonzero;stroke:none"
         id="path9259" />
      <path
         d="m 3228.39,2991.66 -117.27,19.98 -124.11,33.39 -55.17,79.92 -6.84,86.67 6.84,53.37 89.64,-33.3 165.51,-46.71 124.11,9.99 54.36,-27.45 -95.67,-32.58 108.54,-27.45 -108.54,-25.83 103.41,-36.72 -96.57,-3.33 65.52,-49.14 -113.76,-0.81"
         style="fill:#3a54ad;fill-opacity:1;fill-rule:nonzero;stroke:none"
         id="path9261" />
      <path
         d="m 4208.13,2588.28 -165.24,33.39 -118.08,39.96 -47.25,86.67 -7.83,126.72 15.75,79.92 c 15.66,-19.98 94.41,-39.96 94.41,-39.96 l 181.08,-39.96 63,-17.55 121.5,-74.97 -113.76,-37.53 118.98,-37.53 -69.84,-37.44 64.62,-25.02 -100.8,-32.49 87.93,-22.5 -124.47,-1.71"
         style="fill:#3a54ad;fill-opacity:1;fill-rule:nonzero;stroke:none"
         id="path9263" />
      <path
         d="m 5235.12,2959.98 c 0,0 -135.18,12.96 -151.74,18.36 -20.7,6.66 -144.81,59.94 -144.81,59.94 l -75.87,60.03 13.77,186.66 96.57,-66.69 c 0,0 110.34,-13.32 131.04,-19.98 14.85,-4.77 83.61,-16.56 120.78,-22.68 14.31,-2.43 24.03,-3.96 24.03,-3.96 l -11.25,-11.7 77.58,-47.52 -62.01,-37.44 54.27,-25.02 -90.54,-27.54 85.32,-29.97 -67.14,-32.49"
         style="fill:#3a54ad;fill-opacity:1;fill-rule:nonzero;stroke:none"
         id="path9265" />
      <path
         d="m 4337.05,1220.72 1.49,62.56 v 313.38 c 0,0 1.89,38.22 4.28,87.42 l -2.44,-463.34 -3.33,-0.02"
         style="fill:#e63b3d;fill-opacity:1;fill-rule:nonzero;stroke:none"
         id="path9267" />
      <path
         d="m 4329.99,924.992 7.06,295.728 3.33,0.02 -1.53,-290.97 -8.86,-4.778"
         style="fill:#e63b3d;fill-opacity:1;fill-rule:nonzero;stroke:none"
         id="path9269" />
      <path
         d="m 4340.38,1220.74 2.44,463.34 c 4.07,83.97 9.58,199.95 9.58,212.55 0,19.98 -2.43,228.33 -2.43,228.33 l 278.19,144.99 462.06,233.37 482.76,260.01 351.63,166.68 -6.84,-80.01 -20.7,-293.4 -13.86,-239.94 -27.54,-506.7 -172.44,-93.33 -282.69,-160.02 -331.02,-186.66 -251.93,-147.02 -167.06,-0.77 17.68,23.5 10.35,114.93 5.13,115.02 -5.13,95.04 -5.22,99.99 -41.4,70.02 -49.95,66.6 -55.17,80.01 -17.28,98.37 6.93,80.01 68.94,53.28 27.63,-53.28 -10.35,-144.99 55.17,-20.07 10.35,145.08 -13.86,86.67 -82.71,46.62 -82.71,-66.69 -48.33,-106.65 24.12,-158.31 48.33,-80.01 48.24,-46.71 44.82,-114.93 10.35,-110.07 v -129.96 l -17.19,-126.63 -40.1,-17.26 -24.53,-0.11 -28.52,105.66 -3.42,88.38 10.35,104.94 -72.45,5.04 3.42,-58.32 v -133.38 l 15.17,-112.67 -118.81,-0.54 m 548.51,1098.26 -75.87,-20.07 -75.87,-59.94 13.77,-233.37 13.77,-266.67 6.93,-239.94 -5.13,-223.38 65.16,54.36 7.2,115.65 -5.13,164.97 6.84,81.72 75.87,28.26 34.47,71.73 6.93,113.31 -6.93,153.36 v 146.61 l -13.77,80.01 -48.24,33.39 m 206.82,106.65 -60.3,-45 -15.57,-195.03 5.22,-115.02 -5.22,-135 -20.61,-116.64 v -98.37 l -5.22,-69.93 -8.64,-65.07 -8.91,-165.6 46.53,19.98 33.12,25.65 -1.71,46.71 v 99.99 l 12.06,113.31 1.71,46.71 86.22,43.29 15.48,-95.04 10.35,-79.92 20.7,-80.01 46.53,9.99 36.18,45 -25.83,49.95 -25.92,99.99 -51.66,195.03 -20.7,135 -29.34,96.66 -13.77,133.38 -20.7,99.99 m 312.84,118.8 -72.72,-7.56 -75.6,-85.23 c 0,0 -23.76,-91.44 -25.92,-111.33 -2.16,-19.89 -9,-139.86 -9,-139.86 l -0.45,-155.07 16.02,-130.68 20.07,-104.76 31.05,-94.95 21.78,-46.35 52.74,-25.47 74.34,46.08 59.85,111.69 8.46,134.01 -72.36,-35.01 -15.57,-115.02 -32.13,-65.34 -40.23,10.35 -25.92,99.99 -15.48,110.07 -9.18,132.93 -5.4,135.27 9.99,125.19 23.04,84.78 50.94,21.69 44.37,-38.07 -10.35,-156.78 67.23,34.92 1.98,89.1 -7.56,121.41 -63.99,54 m 395.37,245.52 -99.99,-53.37 -89.64,-53.28 -32.76,-33.39 -30.96,-24.93 -5.22,-120.06 5.22,-180 -5.22,-154.98 6.93,-180 V 1836.6 l 6.84,-106.65 156.87,85.05 56.97,45 v 90 l -62.1,-33.39 -68.94,-53.28 -18.99,-3.33 -5.13,174.96 -10.35,108.36 5.13,126.63 43.11,19.98 86.22,40.05 3.42,66.69 -8.64,33.3 -46.53,-13.32 -55.17,-46.71 -17.19,-9.99 -5.22,90 5.22,64.98 v 70.02 l 41.31,40.05 79.29,38.34 65.52,51.66 v 74.97"
         style="fill:#e63b3d;fill-opacity:1;fill-rule:nonzero;stroke:none"
         id="path9271" />
      <path
         d="m 4338.85,929.77 1.53,290.97 118.81,0.54 2.11,-15.67 62.1,-59.94 89.64,26.64 37.49,49.85 167.06,0.77 -113.56,-66.28 -241.29,-160.021 -123.89,-66.859 m 198.32,282.5 -2.53,9.36 24.53,0.11 -22,-9.47"
         style="fill:#e63b3d;fill-opacity:1;fill-rule:nonzero;stroke:none"
         id="path9273" />
      <path
         d="m 4828.5,1765.59 -15.48,133.38 -6.93,133.29 -8.64,178.38 67.23,35.01 31.05,-30.06 6.93,-96.66 v -113.31 -113.31 l -1.71,-61.65 -31.05,-60.03 -41.4,-5.04 m 232.74,93.42 5.22,81.63 5.13,150.03 10.35,99.99 31.05,-189.99 10.35,-105.03 -62.1,-36.63"
         style="fill:#e63b3d;fill-opacity:1;fill-rule:nonzero;stroke:none"
         id="path9275" />
      <path
         d="m 3420.45,2989.95 -54.18,12.51 137.97,52.56 -120.15,27.45 113.22,19.17 -125.1,47.52 111.33,12.51 -107.64,33.3 133.47,17.55 147.51,63.27 5.94,-86.67 -11.88,-106.65 -23.67,-39.96 -94.95,-26.73 -111.87,-25.83"
         style="fill:#e63b3d;fill-opacity:1;fill-rule:nonzero;stroke:none"
         id="path9277" />
      <path
         d="m 4388.4,2591.61 -29.07,23.4 103.41,19.98 -96.57,33.3 82.8,40.05 -110.34,33.3 96.57,26.64 -137.97,83.34 84.15,-13.32 115.83,3.33 117.27,19.98 80.37,51.66 9.27,-128.34 -14.04,-106.65 -77.22,-66.6 -84.15,-13.41 -140.31,-6.66"
         style="fill:#e63b3d;fill-opacity:1;fill-rule:nonzero;stroke:none"
         id="path9279" />
      <path
         d="m 4283.46,3308.28 144.81,80.01 -96.57,40.05 131.04,59.94 -110.34,33.39 117.27,39.96 -89.64,26.64 82.26,20.52 94.86,26.19 56.88,24.57 21.69,-65.25 -7.29,-130.5 -14.4,-94.23 -79.47,-36.27 -144.54,-21.78 -106.56,-3.24"
         style="fill:#e63b3d;fill-opacity:1;fill-rule:nonzero;stroke:none"
         id="path9281" />
      <path
         d="m 5283.36,2948.28 99.9,46.71 -74.88,26.64 74.88,26.73 -48.15,26.64 53.55,39.96 -105.3,46.71 110.61,6.66 53.55,19.98 107.1,46.71 32.13,39.96 v -99.99 l -10.71,-99.99 -32.13,-33.39 -53.55,-39.96 -69.57,-33.3 -137.43,-20.07"
         style="fill:#e63b3d;fill-opacity:1;fill-rule:nonzero;stroke:none"
         id="path9283" />
      <path
         d="m 0,357.5 h 270 v 5 H 0 Z"
         style="fill:#100f0d;fill-opacity:1;fill-rule:nonzero;stroke:none"
         id="path9285" />
      <path
         d="m 357.5,0 h 5 v 270 h -5 z"
         style="fill:#100f0d;fill-opacity:1;fill-rule:nonzero;stroke:none"
         id="path9287" />
      <path
         d="m 0,6357.5 h 270 v 5 H 0 Z"
         style="fill:#100f0d;fill-opacity:1;fill-rule:nonzero;stroke:none"
         id="path9289" />
      <path
         d="m 357.5,6450 h 5 v 270 h -5 z"
         style="fill:#100f0d;fill-opacity:1;fill-rule:nonzero;stroke:none"
         id="path9291" />
      <path
         d="m 8450,6357.5 h 270 v 5 h -270 z"
         style="fill:#100f0d;fill-opacity:1;fill-rule:nonzero;stroke:none"
         id="path9293" />
      <path
         d="m 8357.5,6450 h 5 v 270 h -5 z"
         style="fill:#100f0d;fill-opacity:1;fill-rule:nonzero;stroke:none"
         id="path9295" />
      <path
         d="m 8450,357.5 h 270 v 5 h -270 z"
         style="fill:#100f0d;fill-opacity:1;fill-rule:nonzero;stroke:none"
         id="path9297" />
      <path
         d="m 8357.5,0 h 5 v 270 h -5 z"
         style="fill:#100f0d;fill-opacity:1;fill-rule:nonzero;stroke:none"
         id="path9299" />
    </g>
  </g>
</svg>
