<svg preserveAspectRatio="xMidYMid meet" data-bbox="-0.001 3.19 2030.561 884.311" xmlns="http://www.w3.org/2000/svg" viewBox="0 0 2034 888" fill-rule="evenodd" clip-rule="evenodd" stroke-linejoin="round" stroke-miterlimit="2" data-type="ugc" role="presentation" aria-hidden="true">
    <g>
        <path d="M168.292 886.113h-17.38v-42.041l-21.02-59.126h17.662l12.192 38.521h.27l11.638-38.52h17.65l-21.012 59.125v42.041z" fill="#00596e" fill-rule="nonzero"></path>
        <path d="M217.413 861.163c0 7.563 2.246 11.217 9.25 11.217s9.25-3.654 9.25-11.217V809.88c0-7.563-2.246-11.196-9.25-11.196s-9.25 3.633-9.25 11.196v51.283zm-17.367-51.683c0-14.304 8.4-25.938 26.617-25.938 18.22 0 26.62 11.634 26.62 25.938v52.125c0 14.279-8.4 25.896-26.62 25.896-18.217 0-26.617-11.617-26.617-25.896V809.48z" fill="#00596e" fill-rule="nonzero"></path>
        <path d="M270.554 784.946h17.367v76.363c0 7.417 2.942 11.07 9.25 11.07 6.3 0 9.254-3.653 9.254-11.07v-76.363h17.367v75.671c0 17.367-10.083 26.884-26.62 26.884-16.538 0-26.618-9.517-26.618-26.884v-75.67z" fill="#00596e" fill-rule="nonzero"></path>
        <path d="M341.309 886.113V784.946h16.108l21.158 57.884h.284v-57.884h15.687v101.167h-15.129l-22.138-63.192h-.283v63.192H341.31z" fill="#00596e" fill-rule="nonzero"></path>
        <path d="M435.917 834.826h28.446v51.287h-8.4l-3.225-7.562c-5.188 6.175-9.388 8.95-17.513 8.95-13.737 0-23.262-9.788-23.262-25.896V809.48c0-14.304 8.4-25.938 25.496-25.938 17.379 0 26.066 12.604 26.066 27.742v6.45h-16.529c0-15.125-3.087-19.05-9.958-19.05-4.2 0-7.704 2.52-7.704 11.067v51.979c0 6.446 2.1 10.65 8.125 10.65 7.004 0 9.537-3.908 9.537-14.008v-9.809h-11.079v-13.737z" fill="#00596e" fill-rule="nonzero"></path>
        <path d="M530.505 830.334h6.733c11.35 0 14.846-3.488 14.846-15.542s-3.496-15.541-14.846-15.541h-6.733v31.083zm-17.367 55.78V784.945h24.937c21.434 0 31.388 8.275 31.388 29.846 0 21.571-9.954 29.842-31.388 29.842h-7.57v41.48h-17.367z" fill="#00596e" fill-rule="nonzero"></path>
        <path d="M602.338 830.334h6.167c9.387 0 12.891-3.488 12.891-15.542s-3.504-15.541-12.891-15.541h-6.167v31.083zm0 55.78h-17.367V784.945h24.371c19.48 0 29.434 8.275 29.434 29.846 0 16.254-6.309 22.85-12.192 25.517l14.712 45.804h-17.662l-12.33-41.896c-2.233.292-5.879.417-8.966.417v41.48z" fill="#00596e" fill-rule="nonzero"></path>
        <path d="M673.013 861.163c0 7.563 2.246 11.217 9.25 11.217s9.25-3.654 9.25-11.217V809.88c0-7.563-2.246-11.196-9.25-11.196s-9.25 3.633-9.25 11.196v51.283zm-17.37-51.683c0-14.304 8.4-25.938 26.62-25.938 18.217 0 26.62 11.634 26.62 25.938v52.125c0 14.279-8.403 25.896-26.62 25.896-18.22 0-26.62-11.617-26.62-25.896V809.48z" fill="#00596e" fill-rule="nonzero"></path>
        <path d="M726.305 886.113V784.946h48.483v15.142h-31.112v26.046h23.258v15.142h-23.258v44.837h-17.371z" fill="#00596e" fill-rule="nonzero"></path>
        <path d="M790.238 886.113V784.946h46.521v15.142h-29.15v26.046h22.417v15.142h-22.417v29.716h31.113v15.121h-48.484z" fill="#00596e" fill-rule="nonzero"></path>
        <path d="M887.059 809.88c-.696-8.675-5.325-11.196-9.242-11.196-5.608 0-8.695 3.633-8.695 9.954 0 17.221 35.316 25.496 35.316 52.967 0 16.654-11.216 25.896-27.462 25.896-16.117 0-25.371-12.875-26.063-28.017l16.53-2.375c.704 10.23 4.766 15.27 10.374 15.27 6.017 0 10.08-3.216 10.08-9.24 0-20.055-35.305-25.372-35.305-54.372 0-16.112 9.809-25.225 26.905-25.225 14.145 0 22.554 10.23 24.1 24.53l-16.538 1.808z" fill="#00596e" fill-rule="nonzero"></path>
        <path d="M953.31 809.88c-.693-8.675-5.322-11.196-9.243-11.196-5.604 0-8.691 3.633-8.691 9.954 0 17.221 35.312 25.496 35.312 52.967 0 16.654-11.212 25.896-27.458 25.896-16.117 0-25.37-12.875-26.063-28.017l16.53-2.375c.7 10.23 4.766 15.27 10.37 15.27 6.021 0 10.084-3.216 10.084-9.24 0-20.055-35.304-25.372-35.304-54.372 0-16.112 9.808-25.225 26.9-25.225 14.15 0 22.558 10.23 24.1 24.53l-16.538 1.808z" fill="#00596e" fill-rule="nonzero"></path>
        <path fill="#00596e" fill-rule="nonzero" d="M1004.488 784.946v101.167H987.11V784.946h17.38z"></path>
        <path d="M1040.422 861.163c0 7.563 2.246 11.217 9.25 11.217s9.25-3.654 9.25-11.217V809.88c0-7.563-2.246-11.196-9.25-11.196s-9.25 3.633-9.25 11.196v51.283zm-17.371-51.683c0-14.304 8.404-25.938 26.62-25.938s26.622 11.634 26.622 25.938v52.125c0 14.279-8.405 25.896-26.621 25.896s-26.621-11.617-26.621-25.896V809.48z" fill="#00596e" fill-rule="nonzero"></path>
        <path d="M1093.634 886.113V784.946h16.109l21.166 57.884h.275v-57.884h15.688v101.167h-15.121l-22.138-63.192h-.291v63.192h-15.688z" fill="#00596e" fill-rule="nonzero"></path>
        <path d="M1182.855 848.563h13.988l-6.85-43.433h-.271l-6.867 43.433zm-5.63 37.55h-16.8l18.63-101.167h21.588l18.629 101.167h-16.804l-3.084-22.429h-19.05l-3.108 22.43z" fill="#00596e" fill-rule="nonzero"></path>
        <path d="M1232.368 886.113V784.946h17.366v86.046h27.325v15.121h-44.691z" fill="#00596e" fill-rule="nonzero"></path>
        <path d="M1323.743 809.88c-.696-8.675-5.334-11.196-9.242-11.196-5.608 0-8.696 3.633-8.696 9.954 0 17.221 35.325 25.496 35.325 52.967 0 16.654-11.212 25.896-27.47 25.896-16.109 0-25.367-12.875-26.063-28.017l16.529-2.375c.696 10.23 4.767 15.27 10.375 15.27 6.025 0 10.08-3.216 10.08-9.24 0-20.055-35.305-25.372-35.305-54.372 0-16.112 9.808-25.225 26.904-25.225 14.138 0 22.554 10.23 24.109 24.53l-16.546 1.808z" fill="#00596e" fill-rule="nonzero"></path>
        <path d="M1521.322 886.113V784.946h16.108l21.15 57.884h.292v-57.884h15.692v101.167h-15.142l-22.137-63.192h-.275v63.192h-15.688z" fill="#00596e" fill-rule="nonzero"></path>
        <path d="M1610.526 848.563h14.025l-6.866-43.433h-.296l-6.863 43.433zm-5.608 37.55h-16.82l18.645-101.167h21.57l18.63 101.167h-16.804l-3.067-22.429h-19.067l-3.087 22.43z" fill="#00596e" fill-rule="nonzero"></path>
        <path d="M1660.493 886.113V784.946h16.113l21.166 57.884h.271v-57.884h15.708v101.167h-15.141l-22.134-63.192h-.275v63.192h-15.708z" fill="#00596e" fill-rule="nonzero"></path>
        <path d="M1749.697 848.563h14.025l-6.866-43.433h-.292l-6.867 43.433zm-5.591 37.55h-16.821l18.65-101.167h21.566l18.65 101.167h-16.837l-3.07-22.429h-19.068l-3.07 22.43z" fill="#00596e" fill-rule="nonzero"></path>
        <path fill="#00596e" fill-rule="nonzero" d="M1818.335 784.946v101.167h-17.371V784.946h17.37z"></path>
        <path d="M1907.168 784.946v101.167h-15.12v-79.029h-.292l-15.692 79.03h-8.4l-15.688-79.03h-.291v79.03h-15.125V784.945h22.829l12.35 59.126h.254l12.346-59.126h22.83z" fill="#00596e" fill-rule="nonzero"></path>
        <path d="M1941.43 861.163c0 7.563 2.247 11.217 9.247 11.217 7.012 0 9.258-3.654 9.258-11.217V809.88c0-7.563-2.246-11.196-9.258-11.196-7 0-9.246 3.633-9.246 11.196v51.283zm-17.366-51.683c0-14.304 8.4-25.938 26.613-25.938 18.225 0 26.625 11.634 26.625 25.938v52.125c0 14.279-8.4 25.896-26.625 25.896-18.213 0-26.613-11.617-26.613-25.896V809.48z" fill="#00596e" fill-rule="nonzero"></path>
        <path d="M1397.493 843.65c0 5.863 1.754 8.676 7.158 8.676 5.425 0 7.163-2.813 7.163-8.675v-39.692c0-5.858-1.738-8.67-7.163-8.67-5.404 0-7.158 2.812-7.158 8.67v39.692zm-13.442-40.016c0-11.05 6.5-20.054 20.6-20.054s20.604 9.004 20.604 20.054v40.346c0 11.067-6.504 20.054-20.604 20.054s-20.6-8.987-20.6-20.054v-40.346z" fill="#00596e" fill-rule="nonzero"></path>
        <path d="M1439.534 862.955v-78.3h37.534v11.708h-24.092v20.183h18.009v11.709h-18.009v34.7h-13.442z" fill="#00596e" fill-rule="nonzero"></path>
        <path fill="#00596e" fill-rule="nonzero" d="M1476.722 874.9v11.284h-92.308v-11.283h92.308z"></path>
        <path d="M1866.439 625.926h-51.25l-243.238-289.413v289.413h-58.554V243.054h51.246l243.242 290.526V243.054h58.554v382.872zm-600.484-111.484h-114.88v111.484h-58.545V243.054h173.425c73.184 0 136.25 43.342 136.25 136.817 0 84.454-63.066 134.571-136.25 134.571zm-270.73-266.875L840.393 468.834v157.092h-58.554V469.4L626.996 247.567v-4.513h65.313l118.808 172.288 118.796-172.288h65.313v4.513zM1990.16 128.87H363.496a40.042 40.042 0 00-10.125 1.342l2.08 2.2s237.191 284.3 251.416 300.296c14.23 16-48.017 8.875-48.017 8.875l-12.445 96.05.183 74.537-78.446 81.971 3.438 30.754h1518.58c22.23 0 40.4-18.175 40.4-40.4V169.271c0-22.23-18.17-40.4-40.4-40.4zm-733.23 165.417h-105.854v168.904h105.854c46.738 0 84.454-31.525 84.454-83.32 0-56.876-37.716-85.584-84.454-85.584z" fill="#00596e" fill-rule="nonzero"></path>
        <path d="M637.296 434.296c-1.47 2.321-2.883 4.73-4.637 6.813-11.63 2.337-23.846 4.312-35.9 6.504-3.992.729-8.209 1.167-11.946 2.17-6.163 1.663-17.458 6.522-17.458 6.522l-14.93 55.854s-1.454 19.358-2.175 29.425c-.912 12.962-1.562 26.17-2.466 39.375-1.08-13.317-1.417-26.742-1.871-40.2-1.417-39.925-3.57-56.709-4.913-96.946-1.775-1.792-4.333-2.45-6.541-3.546-6.384-3.212-12.875-6.408-19.58-9.787-8.737-4.421-17.533-9.459-26.104-13.313-.129-.092-.387.038-.558 0-3.862-.93-8.742-.383-13.02-.53-12.672-.474-25.31-1.203-38.36-1.678-.645 43.1-.107 87.337-.29 130.879-3.9-.55-7.505-1.388-11.15-2.188V414.96H220.591c-4.2 29.696-8.1 62.825-12.275 93.616-.246 1.992-.246 4.35-.775 5.959-.85 2.554-4.4 5.183-6.55 7.337a132.397 132.397 0 01-5.434 5.171c-.383.367-.783 1.663-1.612 1.117.9-38.942 1.612-77.992 2.17-117.221-33.587 5.079-68.224 11.504-102.287 17.096a25451.545 25451.545 0 01-6.512 168.137c-4.325-1.716-9.113-2.883-13.342-4.637.813-19.984 1.033-39.088 1.654-59.05.184-6.484 1.104-13.242.521-19.596-.52-5.992-2.537-12.858-3.808-19.013-3.738-18.612-7.554-38.52-11.434-56.858-17.095-6.975-34.891-13.333-52.462-19.85-2.65-5.9-5.692-11.38-8.446-17.13.9-2.066 2.792-3.508 4.346-4.916 87.483-81.054 176.237-162.054 264.104-243.13 6.396-5.916 12.634-12.128 19.05-18.008 6.68-6.062 13.417-12.091 20.138-18.191-.742 3.362-.667 7.162-1.9 10.337-.942 2.267-5.313 6.321-8.192 8.95-8.775 8.13-17.662 16.875-25.833 25.059-33.954 33.954-68.867 67.504-102.525 101.183-17.005 16.983-32.975 34.846-50.071 51.942-5.642 5.646-11.425 11.341-16.859 17.129-21.916 23.362-44.991 45.5-66.354 68.82 41.842-4.858 83.25-10.116 125.117-14.974 45.396-77.621 90.463-155.592 135.458-233.6.017 1.975-1.379 3.691-2.183 5.408-12.796 27.25-26.354 54.792-39.97 81.858-7.288 14.542-14.03 29.263-21.242 43.8-7.142 14.463-14.017 29.113-21.196 43.521 1.891.821 4.191 1.225 6 2.192 17.679-25.296 35.05-50.867 52.462-76.471.33 1.608-1.012 2.85-1.587 4.092-4.592 9.129-9.142 18.829-13.634 28.308-5.079 10.704-10.912 21.242-16.029 32.054-10.246 21.642-21.296 42.992-31.558 64.492 66.908.546 133.654 1.204 200.183 2.192-11.446-44.567-23.296-88.767-34.837-133.292 17.304 43.98 33.587 89 50.592 133.292 5.02.454 9.495 1.404 14.445 1.9-1.033-3.984-2.608-7.875-4.083-11.692-21.533-55.888-43.504-112.908-65.275-169.454-1.433-3.8-2.3-6.759-2.733-11.98a1034.717 1034.717 0 00-1.65-18.229c.958.842 1.395 2.175 1.916 3.271 7.946 16.383 16.117 33.825 23.938 50.571 25.12 53.88 51.733 107.833 76.983 162.15 30.384 4.017 60.234 8.638 90.6 12.75-1.591-2.85-3.946-5.667-6.304-8.696-15.38-20.037-31.487-40.47-47.292-60.67-18.045-22.98-35.991-46.1-54.154-69.08-18.129-22.92-35.654-46.537-53.833-69.346-17.134-21.458-37.171-47.287-54.117-69.058-.542-.654-1.087-4.675-1.646-5.442-.2-.291.684-5.716 1.646-6.5 8.667 2.446-6.633 5.038 2.667 7.525 1.283.363 3.037.33 4.079.804 1.087.509 2.767 2.775 4.367 4.638 20.225 23.412 67.67 59.633 87.596 82.737 65.112 75.392 132.02 151.48 196.666 226.013z" fill="#00596e" fill-rule="nonzero"></path>
        <path d="M504.025 603.442c-3.954-1.042-7.766-2.796-11.7-3.233-3.754-.421-7.916.108-11.962.275-4.121.179-8.192-.167-12.254 0-23.946 1.02-48.546 1.058-72.071 1.641-32.038.73-62.475 4.638-91.404 6.796-2.796-1.57-4.367-5.829-7.342-6.52-2.813-.713-6.642.124-10.063.254-22.495.75-44.283 1.333-66.637 1.625-1.883.037-4.146.529-5.188.291-1.9-.508-4.054-3.541-5.962-5.479-1.938-1.896-3.8-4.892-5.984-5.404-1.25-.275-3.095.183-4.091.254-34.771 2.046-67.292 3.93-102.275 6.267.362 1.808 3.42 4.729 3.804 6.554-1.87-.838-3.804-1.663-5.98-2.192 11.45 13.884 23.26 28.167 35.65 42.705 10.03 11.8 21.397 25.091 31.8 37.258 1.672 1.933 4.042 4.308 4.355 5.696.667 2.596 0 6.925 0 10.629v22.375c5.417.146 12.483 15.946 17.817 16.53-.038-.163-1.725-15.963-1.763-16.11-1.608-12.2-3.112-32.324-4.62-44.6-10.584-11.287-21.588-22.483-32.905-34.228-7.954-8.255-16.912-16.875-25.05-25.588-2.812-3.013-5.475-6.775-8.43-8.417-3.012-1.683-6.69-2.083-9.512-3.8h37.817c20.554 27.23 41.292 54.463 62.025 81.896 1.413 1.9 3.504 4.13 4.08 5.663.703 2.008.778 5.02 1.07 7.375.804 5.537 2.938 32.987 3.734 38.358 5.041-.383 8.65-14.062 13.8-14.062 6.991 0 13.679 11.066 20.52 11.775l.309-48.325c-13.134-18.7-27.121-37.496-40.246-56.034-4.43-6.283-9.05-12.437-13.104-18.758 9.408 1.316 16.383 5.041 24.791 7.287 12.205 18.775 24.567 36.913 36.971 55.542 1.825 2.704 4.18 5.48 5.192 8.146 2.058 5.48 1.125 11.762.787 18.792-.162 4.15-.42 7.837-.62 12.037 4.75-.53 10.391-1.55 15.212-1.717-.675-7.487-2.087-13.695-2.575-20.929 4.567-.254 9.317-.437 14.138-.804 4.675-.362 9.645-1.642 13.833-1.15 1.846.254 3.808 1.554 5.454 2.175 2.092.858 3.825 1.57 5.717 2.192 4.329-2.267 8.858-4.642 13.029-6.78 1.475-.712 3.354-1.079 4.367-2.445-4-1.08-8.009-2.834-12.221-4.292-3.98-1.5-8.192-3.508-12.234-4.383-3.225-.713-6.687-.875-10.07-1.388-10.25-1.462-20.021-2.629-30.205-4.112-10.57-15.009-20.845-31.321-31-46.48-1.545-2.32-3.537-4.237-4.066-6.504 25.925-.2 52.229.367 78.316-.858 13.105-.638 26.246-.07 39.159-.53 6.466-.22 12.85-.4 19.325-.583 6.5-.075 13.196.363 19.596-.258 7.087-.708 14.062-3.396 21.495-4.308-8.7 21.842-17.587 43.542-26.125 65.496 4.009.4 7.059 1.662 11.15 1.97 12.913-19.504 25.671-39.741 38.346-59.045 1.846-2.813 3.296-6.009 5.709-8.421 18.62 1.112 41.041 2.483 60.379 3.8 2.23.125 7.07.912 8.72.508 1.71-.383 4.517-3.942 5.984-5.404.996-.988 1.817-2.117 2.72-3.03.926-.878 2.488-1.628 2.43-3a204.042 204.042 0 01-11.942-2.99z" fill="#00596e" fill-rule="nonzero"></path>
        <path d="M333.746 39.396l-9.404-6.871-13.47 80.892-.147 12.346 17.98-42.371 4.82.437 5.592 37.296 9.87.95-13.416-55.854-1.825-26.825z" fill="#00596e" fill-rule="nonzero"></path>
        <path d="M394.092 741.555s-.43-34.554.054-38.504c22.208-1.68 44.646-3.05 67.15-4.417.43 6.754 1.45 34.28 1.842 40.654 4.658-.254 8.542-13.037 13.27-13.037.876 0 1.709.108 2.555.108.733-8.496 1.508-25.68 2.192-34.246 11.904-11.962 24.55-24.82 36.458-36.692 1.725-1.754 4.046-3.325 5.458-5.116 1.675-2.3 2.942-5.404 4.621-8.217 4.513-7.633 11.058-17.642 14.408-24.475-.462 0-.629.658-.825.842-13.054 10.92-26.304 22.354-40.283 34.479-11.004 9.608-23.633 20.258-35.058 30.246-2.025 1.754-3.846 3.946-5.167 4.312-1.83.546-5.142.384-7.625.584-15.637.987-31.654 2.083-47.05 2.995-2.633.146-5.563.146-7.9.588-2.067.292-4.25 1.717-6.513 2.408-2.262.75-4.675 1.242-6.812 2.154l-.054 45.334h9.279z" fill="#00596e" fill-rule="nonzero"></path>
        <path d="M485.238 473.471c10.337 5.154 20.683 10.342 31.042 15.492a2939.51 2939.51 0 00-2.2 63.375c-8.863.767-17.617 1.625-26.667 2.208-.592-27.175-1.342-54.116-2.175-81.075z" fill="#00596e" fill-rule="nonzero"></path>
        <path d="M367.209 464.742h.529c-.68 29.992-1.4 59.888-2.175 89.804-29.842.788-59.68 1.517-89.75 2.154-1.363-28.541-2.904-57-4.338-85.416 32.071-2.013 63.98-4.167 95.734-6.542z" fill="#00596e" fill-rule="nonzero"></path>
        <path d="M153.938 473.746v59.013c-14.592 2.175-29.059 4.454-43.763 6.5-2.337-16.675-4.637-33.404-6.575-50.571 16.913-4.713 34.025-10.613 50.338-14.942z" fill="#00596e" fill-rule="nonzero"></path>
        <path d="M328.304 4.675s46.209-8.275 50.938 14.246c4.737 22.5 40.883 26.662 40.883 26.662 0 18.359 1.18 42.65 1.18 42.65s-26.667 10.063-48.584-19.562-34.95-10.667-34.95-10.667l-.583-20.729-11.259-11.854 2.375-20.746z" fill="#00596e" fill-rule="nonzero"></path>
    </g>
</svg>